<?xml version="1.0" encoding="UTF-8"?>
<svg version="1.1" viewBox="0 0 2048 1488" width="640" height="465" xmlns="http://www.w3.org/2000/svg">
<path transform="translate(1106,31)" d="m0 0h7l16 8 24 14 28 16 24 14 28 16 26 15 24 14 28 16 24 14 17 10v-44l3-5 5-3h6l25 14 24 14 26 15 28 16 24 14 28 16 20 12 3 3 1 3-1 170-8 6-7-1-24-14-14-8v164l27 15 24 14 104 60 28 16 24 14 26 15 21 12 26 15 10 7 4 6v11l-3 6-6 5-25 14-44 26h-2v35h2l2-5 8-12 10-13 11-12 12-12 12-9 16-10 16-7 13-4 6-1h22l13 4 9 6 7 7 4 9v8l-5 10-8 8-17 10-20 10-23 13-12 7h-2v2h10l24 7h20l8-1h24l12 4 9 7 6 7 3 7v10l-5 8-9 6-15 7-6 4-5 6-1 3v17l1 6v13l-4 8-7 6-11 3-8 1h-32l-7 3-6 5-9 16-6 11-8 9-11 7-10 4-10 2h-15l-6-5v-2h-2v10l-8 6-6 3h-6l-10-6-3-3-1-7v-203l1-3-27 15-15 9-28 16-52 30-24 14-130 75-16 9-4 2h-8l-16-8-13-8-1 269-5 6-10 5-7-1-11-7-1-3-1-289-13-8-78-45-28-16-24-14-28-16-24-14-28-16-24-14-21-12-3-1-63 13-15 2h-7l-7-2 2 8v8l35-10 16-3h21l12 3 12 6 10 9 8 9 6 10 6 16 6 26 7 45 6 56 6 74 5 11v11l-3 7v10l2 16 3 12 2 4 8 4 11 3 23 3h33l28-3h21l7 4 5 6 3 7v9l-6 12-9 10-14 9-21 9-15 4-10 1h-42l-18 3-26 7-5 1h-14l-12-4-8-6-5-9v-22l2-31v-12l-2-11-56 1-17 3-21 6-7 1 15 38 12 30 11 28 13 32 10 25 7 18 1 6-3 2h-9l-6-12-10-27-6-8-20-20-7-8-13-13v-2h-2l-7-8-7-7-7-8-12-12-7-8-12-12-7-8-11-11-7-8-9-9-7-8-7-7-7-8-12-12-5-6-2-1-27-3-7-2 1 365-1 1h-12l-1-1v-182l1-186-10-2-10-3h-3l-7 8-14 15-15 16-10 10-7 8-13 13-7 8-9 9-7 8-9 9-7 8-10 10-7 8-9 9-7 8-12 12-1 2h-2l-2 4-16 16-14 16-14 37-2 2h-9l-3-3 3-10 11-29 7-16 19-48 42-106 15-38 13-33v-2l-16-9-19-11-27-16-20-13-18-13-13-12-8-16-10-30-7-30-7-41-4-32-3-38v-42l2-17 4-13 6-9 7-7 11-9 8-5 6-2h13l15 4 18 8 20 11 21 13 14 10 13 11 7 7 2 1-7-21-12-48-4-24-2-23v-21l2-11 8-16 4-6-15-9-26-15-22-13-4-5-2-5v-7l3-7 7-6 28-16 26-15 17-10h2l-8-20-4-14-2-11-1-17 2-17 5-16 8-13 11-12 12-9 19-9 37-15 34-14 11-3 6-1h11l11 3 9 7 6 9 3 12-1 7h8l11 4 7 6 4 6 5-2 25-14 24-14 26-15 28-16 15-9 5-2h7l16 8 13 8 3 1-1-4-1-21-4-19-8-20-9-14-9-11-8-8-13-10-14-8-4-1-2 4-2 2-1 17-4 17-6 16-9 17-9 12-8 7-3 1h-11l-12-4-11-7-14-12-11-13-9-15-5-14-1-5v-9l3-7 5-5 13-8 15-6 19-5 14-2h13l12 1 9-7 2-1h7l4 2 5-1 5-4 3 1-1 4-5 6 1 5 10 7 11 7 13 11 13 13 11 16 8 16 5 14 4 20 1 11v21l23 13 43 25 6 4v-271l3-6zm-259 677-3 5 1 26 8-1 21-4 2-2-12-11-14-13zm140 265-14 14-11 9-8 7 1 16 3 8 6 7 8 4 12 3 20 2h8l-2-9-18-52-3-9zm-346 48-27 68-13 33-15 38-17 43-9 22 1 3 10-10v-2h2l7-8 12-12 7-8 10-10 7-8 12-12 7-8 9-9 7-8 9-9 7-8 10-10 7-8 14-14 7-8 16-17v-2l-28-11-22-10-22-12-6-3zm248 24-19 10-13 6-19 7-15 4-5 1 2 4 11 11 7 8 9 9 7 8 12 12 7 8 12 12 7 8 12 12 7 8 10 10 7 8 15 15 7 8 8 8 5 6 1-2-17-43-16-41-8-20-2-2-9-2-8-4-5-4-4-7-1-4v-10l1-14v-24l-2-6z" fill="#445660"/>
<path transform="translate(646,436)" d="m0 0h3l7 11 8 12 12 14 4 5 8 7 12 11 4 2-2 1-1 12v14l3 6 9 6 11 3h24l19-4 7-1 18 4 9 3-1 3-5 4-8 16-4 15-1 9v14l2 13 5 17 8 15 10 13 11 13 11 12 16 17 3 5-3 5v55l-1 77-1 18h-14l-14-2-8 11-12 13-12 11-16 11-15 9-12 4h-2l12 36 11 26 8 16 9 16 4 5 9-1 17-4 20-7 19-9 22-12 28-16 23-14 21-13 19-12 17-11 18-11 4-1 1 2-1 17-1 20-5 16-4 9h-2l-2 4-12 12-11 9-7 6-1 7-22 9-23 15-6 4h-2v3l-12 5-19 10-13 6-19 7-15 4h-5v2l-5 1h-11l-27-3-7-2 1 365-1 1h-12l-1-1v-182l1-186-10-2-10-3h-3l-7 8-14 15-15 16-10 10-7 8-13 13-7 8-9 9-7 8-9 9-7 8-10 10-7 8-9 9-7 8-12 12-1 2h-2l-2 4-16 16-14 16-14 37-2 2h-9l-3-3 3-10 11-29 7-16 19-48 42-106 15-38 13-33v-2l-16-9-19-11-27-16-20-13-18-13-13-12-8-16-10-30-7-30-7-41-4-32-3-38v-42l2-17 4-13 6-9 7-7 11-9 8-5 6-2h13l15 4 18 8 20 11 21 13 14 10 13 11 7 7 2 1-7-21-12-48-4-24-2-23v-21l2-11 8-16 4-6-15-9-26-15-22-13-4-5-2-5v-7l3-7 7-6 28-16 26-15zm-5 585-27 68-13 33-15 38-17 43-9 22 1 3 10-10v-2h2l7-8 12-12 7-8 10-10 7-8 12-12 7-8 9-9 7-8 9-9 7-8 10-10 7-8 14-14 7-8 16-17v-2l-28-11-22-10-22-12-6-3z" fill="#0C453D"/>
<path transform="translate(844,715)" d="m0 0h1v24l22-5h10l13 12 8 7 11 10 8 7 15 12 8 5 2 8v8l35-10 16-3h21l12 3 12 6 10 9 8 9 6 10 6 16 6 26 7 45 6 56 6 74 5 11v11l-3 7v10l2 16 3 12 2 4 8 4 11 3 23 3h33l28-3h21l7 4 5 6 3 7v9l-6 12-9 10-14 9-21 9-15 4-10 1h-42l-18 3-26 7-5 1h-14l-12-4-8-6-5-9v-22l2-31v-12l-2-11-56 1-17 3-21 6-7 1 15 38 12 30 11 28 13 32 10 25 7 18 1 6-3 2h-9l-6-12-10-27-6-8-20-20-7-8-13-13v-2h-2l-7-8-7-7-7-8-12-12-7-8-12-12-7-8-11-11-7-8-9-9-7-8-7-7-7-8-12-12-5-7 15-1 13 13 7 8 9 9 7 8 12 12 7 8 12 12 7 8 12 12 7 8 10 10 7 8 15 15 7 8 12 12-17-43-16-41-8-20-1-1-9-2-8-4-6-5-4-7-1-4v-10l1-14v-24l-1-6-2-1 10-3v-3l19-12 14-9 17-7h3l1-2 2 15 4 7 8 6 15 4 28 3-16-47-7-19v-4l-2-1h2l1-5 4-9 3-11 2-30v-9l-16 9-23 15-24 15-18 11-28 17-23 13-20 11-24 11-22 7-14 3h-5l-7-9-13-24-13-31-10-29-1-7 14-5 20-12 13-10 16-15 12-15 2-3 14 2 14 1v-25l1-80z" fill="#445660"/>
<path transform="translate(510,654)" d="m0 0 2 1-3 3-2-1zm-5 4 2 1-3 4h11l12 2v2l7 1 18 8 13 7 5 2v2l9 3 2 3 7 3 4 4 10 7 6 2v2l4 1 5 5 12 13 9 10 11 14 5 8 3 2v2h2l1 5 3 1 3 8 2 4 3 3 4 11 3 9h2l8 19 7 20 2 10 12 38 9 29 2 9h2l4 19 12 32 6 14 2 6h2l2 6h2l2 7 8 14 1 3h3l3 7 11 12 5 3 5 5 17 9 11 4v2l-5 1h-11l-27-3-7-2 1 365-1 1h-12l-1-1v-182l1-186-10-2-10-3h-3l-7 8-14 15-15 16-10 10-7 8-13 13-7 8-9 9-7 8-9 9-7 8-10 10-7 8-9 9-7 8-12 12-1 2h-2l-2 4-16 16-14 16-14 37-2 2h-9l-3-3 3-10 11-29 7-16 19-48 42-106 15-38 13-33v-2l-16-9-19-11-27-16-20-13-18-13-13-12-8-16-10-30-7-30-7-41-4-32-3-38v-42l2-17 4-13 6-9 7-7zm136 363-27 68-13 33-15 38-17 43-9 22 1 3 10-10v-2h2l7-8 12-12 7-8 10-10 7-8 12-12 7-8 9-9 7-8 9-9 7-8 10-10 7-8 14-14 7-8 16-17v-2l-28-11-22-10-22-12-6-3z" fill="#22DFBF"/>
<path transform="translate(1132,86)" d="m0 0 9 4 27 15 17 10 130 75 24 14 13 7 1 81 3 5 13 8 23 13 24 14 28 16 5 4v115l-1 33-6-2-20-11-24-14-52-30-14-8-24-14-23-13-17-10-28-16-24-14-28-16-24-14-23-13-8-6-1-1-1-8z" fill="#43565F"/>
<path transform="translate(1110,60)" d="m0 0 6 1 24 14 28 16 24 14 28 16 78 45 21 12 19 11 14 8-1-29 1-44 3-5 5-3h6l25 14 24 14 26 15 28 16 24 14 28 16 20 12 3 3 1 3-1 170-8 6-7-1-24-14-14-8-11-6-14-8-1 160-2 3-11-6-25-14-17-10-26-15-21-12-26-15-24-14-28-16-24-14-28-16-24-14-28-16-24-14-21-12-22-13-3-3-1-3zm22 26-1 224 1 8 6 5 26 15 28 16 24 14 28 16 24 14 21 12 24 14 21 12 24 14 23 13 24 14 28 16 13 7h2l1-33v-115l-5-4-25-14-22-13-28-16-13-8-3-5-1-81-22-12-24-14-156-90-12-7z" fill="#91F6E7"/>
<path transform="translate(778,265)" d="m0 0h11l11 3 9 7 6 9 3 12-1 7h8l11 4 7 6 5 7 3 14-1 9-5 12-8 11-4 5-5 3h-3l4 13 4 17 12 22 4 8-1 5-8 4-5 2-1 2-2 19-4 15-6 12-7 8-10 3-5 1h-18l-6-1-3 30-10 4-15 3h-24l-13-4-8-6-3-6v-14l1-12 1-1-11-9-9-9-5-4-9-11-7-9-10-15-6-12-7-20-4-18-1-17 2-17 5-16 8-13 11-12 12-9 19-9 37-15 34-14 11-3z" fill="#168575"/>
<path transform="translate(802,542)" d="m0 0h7l10 5 9 7 16 16 9 11 11 13 11 14 22 26 9 11 8 9 7 8 12 14 9 11 10 11 8 10 2 1h37l79-2 16-1 12-3 4-4 8-17 8-9 8-4 8-2h7l1 3-2 3v5l7 3h6l5-5 7-10 6 2 10 10 4 9-1 9-4 10-10 14-11 12-11 8-11 6-15 5-34 9-56 13-5 2-3-1-63 13-15 2h-7l-10-3-14-10-12-11-8-7-20-18-6-5-3-2v-2l-8-7-16-15-15-15-7-8-8-8-9-11-10-12-9-14-5-11-5-18-1-9v-14l2-14 5-15 6-11z" fill="#FDA8A8"/>
<path transform="translate(1813,726)" d="m0 0h22l13 4 9 6 7 7 4 9v8l-5 10-8 8-17 10-20 10-23 13-12 7h-2v2h10l24 7h20l8-1h24l12 4 9 7 6 7 3 7v10l-5 8-9 6-15 7-6 4-5 6-1 3v17l1 6v13l-4 8-7 6-11 3-8 1h-32l-7 3-6 5-9 16-6 11-8 9-11 7-10 4-10 2h-15l-6-5v-2h-2v-41l-1-78v-21l1-13-1-7 1-28h2l2-5 8-12 10-13 11-12 12-12 12-9 16-10 16-7 13-4z" fill="#1DC5AC"/>
<path transform="translate(1098,329)" d="m0 0 14 8 24 14 25 14 13 8 25 14 24 14 52 30 21 12 24 14 28 16 17 10 23 13 27 16 18 10 43 25 5-1 9-4 1 1-1 39-4 6-7 3-9-2-23-13-24-14-28-16-24-14-26-15-7-4v11l-4 5-24 14-19 11-10 4-5 1h-13l-13-4-23-13-24-14-11-7-5-6v-16l5-6 15-9 24-14 4-4 1-8v-5l-5-2-18-10-24-14-28-16-26-15-21-12-11-7-5-6-1-3v-38z" fill="#FBFBFB"/>
<path transform="translate(382)" d="m0 0h19l9 7 6 8 2 5v128l-3 6-7 6-28 16-26 15-28 16-23 13-10 4h-11l-8-3-8-7-5-10-1-6v-115l4-11 8-9 24-14 23-13 24-14 18-10 16-9z" fill="#445660"/>
<path transform="translate(529,196)" d="m0 0 10 1 8 4 8 9 3 8v126l-3 6-5 5-13 8-25 14-24 14-28 16-19 11-10 3h-8l-11-4-7-8-4-8-1-5v-116l3-10 7-9 20-12 56-32 26-15 11-5z" fill="#445660"/>
<path transform="translate(743,2)" d="m0 0h9l11 4 7 7 4 8 1 4v123l-3 8-8 7-25 14-24 14-25 14-17 10-18 10-3 1h-16l-8-4-7-8-4-10v-121l6-12 8-7 26-15 77-44z" fill="#445660"/>
<path transform="translate(522,649)" d="m0 0h13l15 4 18 8 20 11 21 13 14 10 13 11 7 7 8 7 9 11 11 15 9 15 10 19 12 28 16 47 14 45 7 22 5 17 10 27 12 27 10 18 6 8 9-1 17-4 20-7 19-9 22-12 28-16 23-14 21-13 19-12 17-11 18-11 4-1 1 2-1 17-1 20-5 16-4 9h-2l-2 4-12 12-11 9-7 6-1 7-22 9-23 15-6 4h-2v3l-12 5-19 10-13 6-19 7-15 4h-9l-17-8-10-6-4-5-5-3-10-11-2-3v-4h-3l-9-15-2-3v-6h-2l-2-6h-2l-9-20-13-35-2-16h-2l-11-34-9-30-5-15-2-10-9-25-4-9v-2h-2l-7-16-1-6-3-1-4-8-1-4-3-3v-3h-2l-5-6-8-11-14-17-10-10-4-5-5-5-3-1v-2l-7-2-13-9-3-3-5-2-1-2-7-3-3-3-10-4-15-8-13-5-4-1v-2l-18-1h-6l2-4 6-5 3-3z" fill="#168474"/>
<path transform="translate(1200,595)" d="m0 0h3l1 9h4l1-2h4v7l-10 14-14 21 1 2 11 6 21 12 24 14 63 36 8 6 1 1v7l-4 4-25 14-7 4h-2v2l-6 3-23 13-14 8h-2v2l-12 6-17 10-6 3h-4l-1-7-13-7v-2l-5-1-12-7v-2l-6-2-10-6-11-6-4-2v-2l-5-1 1-2 17-6 12-7 11-9 9-10 9-14 4-11-1-9-5-8-7-7-6-2-7 11-5 4-9-1-5-3v-5l2-5h-7l-13 4-8 7-8 16-5 8-8 3-6 1-16 1h-25l-1-2-7-2-23-13-7-4-3-3-10-5 1-5 13-8 11-6 9-6 11-6 6-3 13-8 21-12 6-4 6-1v-2l18-10 1-1 7 1 43 25 5 2 2-5 16-23 7-10z" fill="#12AE98"/>
<path transform="translate(1364,143)" d="m0 0 7 1 20 11 20 12 26 15 20 12 11 6 21 12 24 14 8 6 2 4 1 32v49l-2 7 1 3v51l-6-1-20-12-23-13-27-16-18-10-27-16-18-10-19-11-3-3v-28l1-4-1-78v-20l1-12z" fill="#C9FDF8"/>
<path transform="translate(939,415)" d="m0 0 9 3 25 14 24 14 21 12 29 17 28 16 24 14 26 15 27 16 9 5 1 2v8l-6 5-26 15-24 14-16 9-6 2-14-7-24-14-28-16-26-15-24-14-26-15-28-16-26-15-22-13-3-3v-8l5-5 19-11 17-10 19-11z" fill="#F5F7F7"/>
<path transform="translate(1645,311)" d="m0 0h6l16 9 24 14 21 12 5 6v30l-8 6-3 2 4 26 6 23 7 21 4 9v7l-18 37-13 28-11 23-8 5-11 6-5-2-5-14-16-52-16-53-6-19v-5l8-11 6-13 5-17 3-18 5-4h2l-3-3-11-6-4-3v-33l4-4z" fill="#22E0C0"/>
<path transform="translate(951,119)" d="m0 0 3 1-1 4-5 6 1 5 10 7 11 7 13 11 13 13 11 16 8 16 5 14 4 20 1 11v24l-4 20 9 2 17 9 7 7 4 11v7l-2 1-4 7-9 8-12 6-11 3h-6v2l-16 1-12-1-9-3-14-5-9-6-7-8-2-5v-9l4-9 9-8 12-6 10-3 11-2h19l2-21v-8h2l-1-4-1-21-4-19-8-20-9-14-9-11-8-8-13-10-14-8-4-1-2 4-2 2-1 17-4 17-6 16-9 17-9 12-8 7-3 1h-11l-12-4-11-7-14-12-11-13-9-15-5-14-1-5v-9l3-7 5-5 13-8 15-6 19-5 14-2h13l12 1 9-7 2-1h7l4 2 5-1z" fill="#13B29B"/>
<path transform="translate(1780,712)" d="m0 0h4l1 2v11l-3 6-6 5-25 14-44 26h-2v63l1 8-1 12v21l1 81-1 48-8 6-6 3h-6l-10-6-3-3-1-7v-203l1-3-27 15-15 9-28 16-52 30-24 14-130 75-16 9-2 1h-6v-18l25-13 25-15 25-14 17-10 24-14 20-11 22-13 12-7 23-13 17-10 11-7 11-6 10-6 11-6 23-13 16-9 24-14 26-15 24-14 22-13 12-7z" fill="#2B363C"/>
<path transform="translate(1580,643)" d="m0 0h8l1 4 3-4 5 5 6 12 8 9 8 6 1 4-8 6-28 16-24 14-56 32-19 11-4 1-26-15-3-3 1-5 23-13 3-2-10 3-24 8-10-9-11-12-1-5 9-4 23-7 6-2 22-6h9l-1 5 9 9 9-2 10-3-2-4-5-5-1-4 5 1 6 4 4 4 7-1 12-4-2-6-2-1 1-2-16 1-11 2-22 2h-6v2l-10 2-6 2-9 2-4 2-31 5-10 1-3-4-9-21 1-3 14-3 141-22z" fill="#F7F9F9"/>
<path transform="translate(1360,116)" d="m0 0h6l25 14 24 14 26 15 28 16 24 14 28 16 20 12 3 3 1 3-1 170-8 6-7-1-24-14-14-8-11-6-14-8-1 160h-1l-1-162-10-6-6-3-24-14-21-12-24-14-21-12-4-4-1-3-1-95v-29l1-44 3-5zm4 27-1 1-1 12v26l1 74-1 2v28l8 6 18 10 24 14 26 15 21 12 24 14 23 13 13 8h4v-51l-1-5 2-5v-49l-1-32-4-6-13-8-19-11-24-14-23-13-24-14-29-17-16-9z" fill="#F9FBFB"/>
<path transform="translate(954,1008)" d="m0 0h1l2 15 4 7 8 6 15 4 28 3 1-2 11 30v2l-9 2-30 2h-33l-20-4-15-6h-3l4 3 9 2 4 3-7 1-7-1 12 29 5 13 3 3h-2l15 38 12 30 11 28 13 32 10 25 7 18 1 6-3 2h-9l-6-12-10-27-6-8-20-20-7-8-13-13v-2h-2l-7-8-7-7-7-8-12-12-7-8-12-12-7-8-11-11-7-8-9-9-7-8-7-7-7-8-12-12-5-7 15-1 13 13 7 8 9 9 7 8 12 12 7 8 12 12 7 8 12 12 7 8 10 10 7 8 15 15 7 8 12 12-17-43-16-41-8-20-1-1-9-2-8-4-6-5-4-7-1-4v-10l1-14v-24l-1-6-2-1 10-3v-3l19-12 14-9 17-7h3z" fill="#4A5963"/>
<path transform="translate(1813,726)" d="m0 0h22l13 4 9 6 7 7 4 9v8l-5 10-8 8-17 10-20 10-23 13-17 10-14 4-14 7-6 5-1 2h-2l-2 4-8 13-10 17-6 8h-2l-1 3-5 5v49h2l-2 14v5l-2 1-1-78v-21l1-13-1-7 1-28h2l2-5 8-12 10-13 11-12 12-12 12-9 16-10 16-7 13-4z" fill="#159A88"/>
<path transform="translate(817,363)" d="m0 0 4 1 7 18 5 22 12 22 4 8-1 5-8 4-5 2-1 2-2 19-4 15-6 12-7 8-10 3-5 1h-18l-6-1-3 30-10 4-15 3h-24l-13-4-8-6-3-6v-14l1-12 4-1 16 4h18l9-3 5-4 8-10 10-15 8-14-14-1-12-6-7-8-4-8-2-11 3-10 5-6 6-3 7-1 7 2 8 8 5 9h3l5-9 1-16 5-5 12-11 7-10z" fill="#FEA8A8"/>
<path transform="translate(522,649)" d="m0 0h13l15 4 18 8 20 11 21 13 14 10 13 11 7 7 8 7 9 11 11 15 9 15 10 19 12 28 16 47 14 45 7 22 5 17 10 27 12 27 10 18 13 18 2 5 2 24v4l-4-2-5-5-6-4-10-11-2-3v-4h-3l-9-15-2-3v-6h-2l-2-6h-2l-9-20-13-35-2-16h-2l-11-34-9-30-5-15-2-10-9-25-4-9v-2h-2l-7-16-1-6-3-1-4-8-1-4-3-3v-3h-2l-5-6-8-11-14-17-10-10-4-5-5-5-3-1v-2l-7-2-13-9-3-3-5-2-1-2-7-3-3-3-10-4-15-8-13-5-4-1v-2l-18-1h-6l2-4 6-5 3-3z" fill="#159A88"/>
<path transform="translate(1395,238)" d="m0 0 4 1 9 12 16 21 6 8-2 4-7 7-1 2 4-1 9-7 11-9 18-13 10-8 3-2h4l10 18 14 24 20 35v48l-6-1-20-12-23-13-27-16-18-10-27-16-18-10-19-11-2-2v-28l9-6 19-12z" fill="#22E0C0"/>
<path transform="translate(1114,325)" d="m0 0 5 1 21 12 26 15 17 10 28 16 26 15 24 14 26 15 28 16 45 26 24 14 21 12 24 14 18 10 13 8 3 1 1-2 1-161 12 6 13 8v166l-3 3-7 4-6-1-26-15-24-14-21-12-24-14-23-13-17-10-21-12-24-14-28-16-26-15-24-14-28-16-26-15-24-14-25-14-14-9v-2l6 2 5 1 5 2 3 1v-2l-3-2 1-4z" fill="#36434E"/>
<path transform="translate(1118,607)" d="m0 0 7 1 43 25 4 2-2 5-5 6-6 11-8 11h-9l-13 4-8 7-8 16-5 8-8 3-6 1-16 1h-25l-1-2-7-2-23-13-7-4-3-3-10-5 1-5 13-8 11-6 9-6 11-6 6-3 13-8 21-12 6-4 6-1v-2l18-10z" fill="#12AD97"/>
<path transform="translate(1645,311)" d="m0 0h6l16 9 24 14 21 12 5 6v30l-8 6-3 2 4 26 6 23 7 21 4 9v7l-18 37-13 28-11 23-8 5-11 6-5-2-1-2v-110l-1-6h-2l-3-9v-7l2-4 7 1 2 1v2l3 1 4 10v6l-4 4-4 1 1 70 1 24 2 2 6-8 4-2 1-4 12-25 9-19 4-10 1-7-5-18-7-22-6-26-3-18-10-7-24-13-9-7 4-4h2l-3-3-11-6-4-3v-33l4-4z" fill="#1EC5AC"/>
<path transform="translate(1205,1122)" d="m0 0h21l7 4 5 6 3 7v9l-6 12-9 10-14 9-21 9-15 4-10 1h-42l-18 3-26 7-5 1h-14l-12-4-8-6-5-9v-22l2-31 2-1 2 10 7 8 10 5 16 4 8 1h49l27-2 18-4 12-5 5-3 3-4v-6l-5-5-8-4 4-2z" fill="#2B363C"/>
<path transform="translate(646,436)" d="m0 0h3l7 11 8 12 12 14 4 5 8 7 12 11 4 2-2 1-2 26-6-2-13-2h-10l-11 4-9 5-9 8h-2l-2 4-3 3-9-6-52-30-6-5-3-7v-7l3-7 7-6 28-16 26-15z" fill="#445660"/>
<path transform="translate(1704,777)" d="m0 0h1v62l1 8-1 12v21l1 81-1 48-8 6-6 3h-6l-10-6-3-3-1-7v-203l1-3-2-1 14-7 9-5h3l1 1v-3l3 1 3-2z" fill="#485862"/>
<path transform="translate(1179,658)" d="m0 0 5 2 22 13 23 13 24 14 26 15 7 4v3l-16 9-12 7-5 3-18 10-5 4-10 5-21 12-6-1-26-15-13-8-7-3 4-3 11-7 12-11 10-13 6-12 2-6-1-9-5-8-7-7-5-3z" fill="#43555F"/>
<path transform="translate(630,1016)" d="m0 0 6 2 5 3-3 10-23 58-13 33-15 38-17 43-9 22 1 1 8-8 1-2h2l2-4 16-16 7-8 10-10 7-8 12-12 7-8 9-9 7-8 9-9 7-8 10-10 7-8 14-14 7-8 16-17h6l7 3-3 5-8 8-7 8-8 8-7 8-13 13-7 8-13 13-7 8-9 9-7 8-9 9-7 8-10 10-7 8-9 9-7 8-12 12-1 2h-2l-2 4-16 16-14 16-14 37-2 2h-9l-3-3 3-10 11-29 7-16 19-48 42-106 15-38z" fill="#4B5A63"/>
<path transform="translate(1331,780)" d="m0 0 5 2 11 5 8 2 10 1h14l12-2 12-4 5-4h2l-1 25-1 30-3 28-3 6-8 5-12 3h-23l-13-4-6-4-3-4-3-27-2-46z" fill="#FDA7A7"/>
<path transform="translate(1094,1091)" d="m0 0 2 3 4 17 2 4 8 4 11 3 23 3h40l8 4 6 6v6l-4 5-9 5-15 5-21 3-17 1h-49l-17-3-14-5-10-9-2-5-3-23v-4l13 1 11-2 12-5 12-7z" fill="#FEA8A8"/>
<path transform="translate(1020,290)" d="m0 0 1 4 9 2 17 9 7 7 4 11v7l-2 1-4 7-9 8-12 6-11 3h-6v2l-16 1-12-1-9-3-14-5-9-6-7-8-2-5v-9l4-9 9-8 12-6 10-3 11-2h18l1 11 5 1 3-7z" fill="#12AF98"/>
<path transform="translate(997,927)" d="m0 0h1v20l-5 16-4 9h-2l-2 4-12 12-11 9-7 6-1 7-22 9-23 15-6 4h-2v3l-12 5-19 10-13 6-19 7-15 4h-9l-17-8-3-2-2-28 5 2 13 7 9 2h13l19-6 19-9 17-10 25-16 25-17 16-12 10-8 5-5 6-7 5-5 10-12z" fill="#1B6C65"/>
<path transform="translate(954,1008)" d="m0 0h1l2 15 4 7 8 6 15 4 28 3 1-2 11 30v2l-9 2-30 2h-33l-20-4-15-6-6-4-9-23 2-4 16-10 14-9 17-7h3z" fill="#FDA8A8"/>
<path transform="translate(756,1069)" d="m0 0 10 1 2 1 1 365-1 1h-12l-1-1v-182z" fill="#465862"/>
<path transform="translate(1614,672)" d="m0 0 5 3 1 4-8 6-28 16-24 14-56 32-19 11-4 1-26-15-3-3 1-5 23-13 3-2-1-3 19-9 15-5 13-5 12-3 66-22z" fill="#F9F8F8"/>
<path transform="translate(620,76)" d="m0 0 5 1 22 13-1 48v59l1 17 2-4h2l1-3h16l3 3-4 4-1 3h-3v4l-11 5h-16l-8-4-7-8-4-10v-121z" fill="#2A353C"/>
<path transform="translate(405,271)" d="m0 0 4 1 19 11 2 2v13l-1 31v47l1 23 5 1 10 3 2 2-1 8-2 1-2-1v2h-3l-1 4-7 2h-8l-11-4-7-8-4-8-1-5v-116l2-7z" fill="#2B363C"/>
<path transform="translate(263,74)" d="m0 0 9 3 18 10 1 3-1 7-1 15v83l1 8h7l8 4 1-2v2l4-1-2 5-3 3-1 3h-2v2h-2l-1 3-6 2h-11l-8-3-8-7-5-10-1-6v-115z" fill="#2E373D"/>
<path transform="translate(1364,143)" d="m0 0 7 1 20 11 20 12 26 15 20 12 11 6 21 12 24 14 8 6 2 4 1 32v49l-2 7 1 6-3-4-14-24-16-28-8-13-2-9 2-3 4 1 6 8 6 11 7 12v3l3 1 4 6v2h2l3 6 3 1-1-16-5-12-2-7-3-5-1-11-1-5h2l-5-8-2-1-1 2-16-11-16-9-15-9-12-7-8-8-5-2h-2l4 13 2 4-1 7-7 9-6 4h-8l-10-9-3-4 1-6 7 3 7 6h5l3-4-1-9-7-10-4-4-4-2v-2h-2v-2l8-2-2-4-12-5-14-8-3-3v-8l-2-4-6-2h-4l-2 5-1 1v19l-1 20h-1l-1-18v-20l1-12z" fill="#D1F9F8"/>
<path transform="translate(840,147)" d="m0 0 7 1 15 6 9 5-1 4-4 5-3 8v7l4 10 7 6 5 2h12l9-4h4l6 16 2 12-3 9-7 6-3 1h-11l-12-4-11-7-14-12-11-13-9-15-5-14-1-5v-9l3-7 5-5z" fill="#1B6D66"/>
<path transform="translate(913,1066)" d="m0 0 6 1 17 6 16 3h33l30-2h10l10 31-1 4-54 1-17 3-21 6h-7l-3-4-11-28-4-10v-2l4-1 8 1-2-2-11-3z" fill="#2B353C"/>
<path transform="translate(1645,311)" d="m0 0h6l16 9 24 14 21 12 5 6v25h-1l-1-23-9 4-7 3-2 4-1 11-1 8h-2v4l-4 1-27-15-8-4-7-3-3-3-11-6-4-3v-33l4-4z" fill="#22DFBF"/>
<path transform="translate(353,72)" d="m0 0 4 1 2 2v7l1 9v5l3 2v13l3-1 3 8 1 4 1 1v6h2v22l10-4 5-3 2-32 1-25h4v2h2l1 5 1 16 1 2v20l-1 5h2l2-8 4-2-1 4-9 18h-2l-2 4-6 5h-2v2l-5 3h-2v2l-6 1-4 5-12 5-3 1h-5l-6 4-5 1-1 5h-2l-1 5v1l4-2 4 1h4l1-3 5 2v2l-27 15-1 1h-5l-1-2h2l1-3 4-4v-2l-4 2-6-1-1-1-11-1-7-6v-7l3-7 2-10 2 2 1 3 2-6 3 1 2-10 6-16 3-7 1-13 4-9 1-9v-11h2v-3h3l-1 12-11 60-5 26h3v-2l11-6 5-27 15-9h3l4 19 3 1v-2l10-5h2l-1-7-7-31-6-26-3-14v-5z" fill="#3D4651"/>
<path transform="translate(1366,739)" d="m0 0 17 1 11 4 5 4 8 4 4 5 1 2-1 19-5 5-8 4-10 3-9 1h-14l-14-2-14-5-6-5-1-2v-19l4-5 11-7 7-4z" fill="#29E0C1"/>
<path transform="translate(1242,458)" d="m0 0 6 2 16 9 22 13 42 24 10 6-1 4-6 11-4 4-11 4-19 11-12 6-8 2h-12l-6-2v-2h18l10-3 14-7 11-7h2l-4-4-13-5-18-9-5-2v-2l-5-2-11-8-15-10-11-6v-2h-2l1-5 7-7 3-5z" fill="#E9EBEC"/>
<path transform="translate(1306,272)" d="m0 0 4 4 5 10 4 10 4 8 16 36 5 10 3 7 4 10 7 14 4 9 8 16v4l-5-1-13-9-19-10-14-8-12-7z" fill="#21DDBE"/>
<path transform="translate(1521,862)" d="m0 0 6 1h7l5 3 1 2 3 2-24 14-104 60-24 14-13 7h-6v-18l25-13 25-15 25-14 17-10 24-14 20-11z" fill="#2C363D"/>
<path transform="translate(1335,613)" d="m0 0h11l6 3v3l-18 6-7-3-3-1 14 8 8 5h2l-11-6-1-3 19-6 12 6 6 4-1 4-16 12-14 10-16 11-6 2-8-1-17-9-10-7-4-6v-9l4-7 7-6 10-4 26-5z" fill="#FAFAFA"/>
<path transform="translate(348,71)" d="m0 0h3l4 15 6 28 7 29 2 11-4 4-6 3h-3v2l-4-1-3-16v-3l-11 6-6 3-5 27-6 4-6 2v2h-3l1-10 10-54 7-39 2-4 6-4 5-2z" fill="#20D9BB"/>
<path transform="translate(699,81)" d="m0 0h11l4 3 3 6v18l-4 15-7 12-6 6-9 5-3 1v33l-5 4-5 3h-4v-89l3-3 12-8z" fill="#20D8B9"/>
<path transform="translate(1179,658)" d="m0 0 5 2 22 13 23 13 24 14 26 15 7 4v3l-16 9-12 7-5 3-18 10-5 4-10 5-21 12-6-1-26-15-13-8-7-3 4-3 8-5 3 1-3 1-2 4 5 3 12 4 15 9 4 2h5l3-1v-2l17-9 2-2h3v-2l12-6 11-6 7-5h2l1-3 4-4-1-5-9-6-16-8 1-2-14-8-11-8-9-5-5-2 1 8v9l-4 10-2-1v-2l-1-2 2-6-1-9-5-8-7-7-5-3z" fill="#3C4550"/>
<path transform="translate(1331,780)" d="m0 0 5 2 11 5 8 2 10 1h14l12-2 12-4 5-4h2l-1 25-1 9-6 4-14 4-6 1h-21l-15-3-11-4-1-2z" fill="#FAFBFB"/>
<path transform="translate(1475,368)" d="m0 0 5 1 10 6v166l-3 3-6 3-4-1v-13l-1-18-1-81 2-57z" fill="#2A363C"/>
<path transform="translate(1656,435)" d="m0 0 7 1 2 1v2l3 1 4 10v6l-4 4-4 1 1 70 1 24 2 2 6-8 4-2 1-4 12-25 9-19 2-1 8-17 3-3h2l1-6 3-1v-2h2v2h6l-1 7-17 35-13 28-11 23-8 5-11 6-5-2-1-2v-110l-1-6h-2l-3-9v-7z" fill="#15B39C"/>
<path transform="translate(1575,419)" d="m0 0 5 1 4 5-1 5-4 3 1 16 6 25 7 19 11 23 10 16 10 14 12 14 12 12 13 10 17 10 15 7 10 2h20l11-3 10-7 7-7 6-11 5-15 1-6v-9l-4-5 1-6 4-3h5l4 4 1 3-2 5-4 3-2 15-6 18-9 13-8 7-12 6-9 2h-22l5 3 26 15 29 17 9-1 5 5-1 5-4 4h-5l-4-4v-5l-5-2-22-13-23-13-22-13-23-13-22-13-16-9-24-14-21-12-4 2-6-1-4-6 2-5 4-3 6 1 3 5 2 4 28 16 22 13 7 4-3-3v-2l-4-2-12-14-11-15-13-21-10-21-7-19-6-24-2-17-5-6 1-5 3-3z" fill="#565E67"/>
<path transform="translate(708,69)" d="m0 0 9 3 3 3-1 9 7 4-1 10-3 8-1 14 2 5 3 2 12 2 1 1-1 7-4 4-12 2-3 1 1 7-1 2-6 1v-3l3-3 1-4-5 2h-4v3l-9 2-4 6v7l1 5-1 8-2 3 2 1-2 5-3 5 2 1-6 5-9 3-8-1h-8l-5-5-2-3-3 6-3-1-2-10 1-6 2-9 2-2 3 3 2 7 2 14 4 2-2-6-2-21 2 1 2 14 1 9 9 2v-2l6-3h2l1-3 6-6 1-33 9-6 5-3 7-9 5-12 2-9v-18l-3-6-3-2h-11l-10 6-10 7h-8l1-5 9-7 7-4 10-6z" fill="#3E4651"/>
<path transform="translate(745,68)" d="m0 0h8l4 6h3l2 7 1 18 1 13v2h5l-2 19-5 11-4 10-4 7-6 4h-2v2l-5 3-2 2-1 2 2 2-9 6-4 2h-3l-3-3-7-3-4-2 6-3h-6l1-2 12-2 2-2 1-4h-2v-2l6-2 5-1 2-4 8-9 5-10 2-7v-10l-1-5-4-2-1-1-11-1-1-1 1-7 5-5 8-2 2-14-8 2-5 2-5-1 1-5 7-7z" fill="#3D4651"/>
<path transform="translate(1148,644)" d="m0 0h8l7 4-2 5-7 11-3 4h-9l-13 4-8 7-8 16-5 8-8 3-6 1h-12l-2-1v-2l-6-2-10-6v-4l12-7 8-4 11-7 11-6 10-6 9-5 16-9z" fill="#3C4650"/>
<path transform="translate(950,137)" d="m0 0 11 6 14 10 12 11 9 9 11 16 8 16 5 14 4 20 1 11v24l-5 21-3 9-4 2-4-4v-9l2-12 1-17h2l-1-4-1-21-4-19-8-20-9-14-9-11-8-8-13-10-14-8-3-2 4-5z" fill="#25DFC0"/>
<path transform="translate(1465,361)" d="m0 0 12 6-2 1 3 9-1 34-1 26 1 86 1 11-2 5-5 1-6-2-1-2-4-2-1-3-2-1v-2l-2-1 1-4-3-1-1-3 5 2 6 3 1-2z" fill="#43545F"/>
<path transform="translate(1534,225)" d="m0 0 5 1 4 5 1 4v157l-8 2-3-3-1-7-1-50-1-14v-41l3-52z" fill="#EAECED"/>
<path transform="translate(1122,53)" d="m0 0 14 7 9 6 4 3 4 4 10 6 9 5h2v3l6 2 5 3 5 1v3l5 2 4 3 7 1 3 2-1 1 3 1 4 4 7 4h5v2l2 1 11 7-2 3 2 1 1-3 14 7 9 3 9 6 6 3 9 5 4 3 4 2 1 2 12 6v3l2 1-1 2 4 2-1 4-5-1-24-14-28-16-24-14-28-16-26-15-24-14-26-15-12-7-1-4 6-1z" fill="#3D4650"/>
<path transform="translate(1646,798)" d="m0 0 6 1-2 6v2h-2l-1 3-24 14-28 16-24 14-26 15h-5l-3-4-8-1h-7l1-3 19-11 23-13 17-10 9-4 9-5 9 1h4l10-10 4-2 9-1 1-4 7-3z" fill="#242F39"/>
<path transform="translate(722,142)" d="m0 0h7v1l-7 2-2 15h6v-2l10-3-1 3-6 3h-5v2h2l1 3-4 4-12 2h6l-5 5 5 1 7 4 1 3-24 14-28 16-10 5v-3h3l1-4 3-4-4-1h-14l-1 2h-2l-1 5-2-2-1-16v-13l2-1 1 13h3l3-6 2 1 3 5 2 2h11l6 1 10-4 3-3-1-3 5-8-3-1 3-6v-8l-1-2v-7l4-6 7-2h3v-3l9-3 1 3-3 5h-2v3l6-1v-9z" fill="#445660"/>
<path transform="translate(1200,595)" d="m0 0h3l1 9h4l1-2h4v7l-10 14-14 21-3 5-11 16-8 11-4 5-2 1-9-1-5-3v-5l16-24 4-7 4-5 10-16 10-14 7-10z" fill="#21DDBE"/>
<path transform="translate(1133,88)" d="m0 0h5l21 12 156 90 24 14 10 6v2h2v5h-2l-3-4-5-1-15-8-3-1v-2l-6-1v-3l-5-1-9-4-10-6-6-3-14-8-9-5-14-8-16-9-9-6-10-5-13-8-15-9-12-7-16-8-3-3-7-4-7-5-5-2-3 1 1 5 1-2 2 1-1 5h-2v2l-2-1z" fill="#3D4752"/>
<path transform="translate(495,270)" d="m0 0 4 1 11 9 5 5v2h6l5-4 7-3-1 5-11 6-2 3-4 14-7 21h-2l-2 9-1 2 2 1v7l-3 11-2 3-5-1 1-9 5-14 2-9 5-13 6-18v-2l-10 5-27 16-7 3 1 5 8 15 10 21v5l-3-1 1 2 1 1h5l-1 3h7v-2l4-1-2 5-5 2-11-1-6-2 2-1 1-4-7-1-6-4-9-10-8-7-4-6v-5l4-3 4 1 17 17 7 8 4 2-14-26-3-6v-3l-10 4-7-1-1-2-1-1v-9l3-6 3-1 3 1-1 9h-3l1 6 4-1 4-3h3v-18h2l1 15 9-5 13-8 23-13h2l-5-5-14-12z" fill="#2B4048"/>
<path transform="translate(506,251)" d="m0 0h7l9 4-2 1-2 5v2h3v-2l5-2 1-2 2 3 3 1 3 6-1 5-5 2-1-2-4-2-2-4-4-2-1 2v-4l-6 2-10 4h-4l-1 3 3 5 11 9 5 4v2l-27 15-16 10-5 2-1-11 1-5h-2v18l-2-1v-18l-3-1 2-1v-10l5-4 2-5 4-3 2 1-1 5-4 6-1 1-1 19 2-1 11-23 5-9-4-4 4-3h3v-2h2v-3h2l2-4 5-3 4-5z" fill="#3A4B54"/>
<path transform="translate(1645,311)" d="m0 0h6l16 9 24 14 21 12 4 5-10 4-7 4-3 1-12-6-27-16-18-10-10-5 1-3z" fill="#8DF6E6"/>
<path transform="translate(744,80)" d="m0 0h6v10l-2 5-9 3-4 5v5l11 1 5 4 2 5v10l-4 12-7 10-6 5-3 2-7 1v2h-6l1-15 2-2 8-2 5-1 2-5v-5l-12-2-5-5-1-3 1-14 4-10 9-10 3-1v-2z" fill="#20D6B8"/>
<path transform="translate(1143,169)" d="m0 0 3 3-1 9 2 7-1 2v6l3 3h5l4 3 3-3 3-4h4v24l-1 29-2 2 3 3v10l-2 1-2-10-9-5h-3l-2 6-8-3v-82z" fill="#34414C"/>
<path transform="translate(1869,841)" d="m0 0h7l2 1v3l-3 1-22 2-22 4-16 5-13 5-23 11-13 9 1 1 24 3 17 5 16 8 11 8 2 2-1 4-6-3-10-7-12-6-16-5-13-2h-22l-8 6-10 11-10 14-8 14-6 13-7 19-3 1v-7l7-21 10-19 10-14 14-15 10-9 18-13 25-13 20-7 19-5 20-3z" fill="#CEF2EE"/>
<path transform="translate(514,295)" d="m0 0 1 3-10 29-2 5-2 8-8 24-3 1-8-16-8-17-5-9 1-4 14-7 17-10 10-6z" fill="#21DCBD"/>
<path transform="translate(1336,847)" d="m0 0 12 6 15 3h12l15-2 12-5 4-2-1 16-3 6-8 5-12 3h-23l-13-4-6-4-3-4z" fill="#FAFAFA"/>
<path transform="translate(1607,673)" d="m0 0 4 1-10 6-16 8-14 9-5 1-2-2-7-1v3l5 2v2l-11 6-6 2-11-6-5-2 2 4 10 6v2l-14 8-6-1-10-7-4-2-6 1-16 6-5 2-2-1v-2l19-9 15-5 13-5 12-3 66-22z" fill="#E9EBEC"/>
<path transform="translate(1393,233)" d="m0 0 4 2 2 2v-2l7-1 12 13v3l3 1 9 12 4 7v2l5-1 17-12 9-7 4-4 4-1 4 4h2v2l-7 3-11 9-14 10-13 10-7 6-4 3-4-1 7-8 3-3-2-5-9-11-12-16-8-11-4 1-17 11-13 8-1 27h-1v-28l1-5 11-9 11-7 4-3z" fill="#CBF9F6"/>
<path transform="translate(996,303)" d="m0 0h10l11 6 1 3h2l3 7v9l-5 5-17 5-9-1-8-4-5-6v-8l4-8 7-6z" fill="#43565F"/>
<path transform="translate(1010,286)" d="m0 0 1 4-1 3-19 1-16 3-14 6-9 7-4 5-2 6v9l4 8 9 8 14 6 12 3 1 1 19 1h9v-2l17-4 12-6 9-8 4-7 1 3-4 11-6 8-5 4-12 6-16 4-9 1h-13l-11-2-13-4-8-4-7-6-8-13-2-6v-9l4-11 8-8 16-8 17-4 20-1z" fill="#1A6C65"/>
<path transform="translate(1034,422)" d="m0 0 9 1 16 8 22 12 15 9 21 12 3 3-1 6-3 3-6-2-16-9-22-12-21-12-10-6-5-5-3-4z" fill="#22D7B9"/>
<path transform="translate(1410,757)" d="m0 0 2 2-1 19-5 5-8 4-10 3-9 1h-14l-14-2-14-5-6-5-1-2v-15l1 4 4 2 6 4 13 4 7 1h18l16-3 12-6 3-5z" fill="#13B39B"/>
<path transform="translate(1304,272)" d="m0 0 2 2 1 3 1 98 11 6 16 9 19 10 11 8 4 4-7 1-7-3-16-9-10-7-12-6v-2l-5-1-8-5-1-6h2l-4-7-1-17v-6-3l-1-8 1-6v-5l2-7-1-15-2-7v-9l1-7-1-3h5z" fill="#3C4651"/>
<path transform="translate(1316,720)" d="m0 0 2 1v7l-4 4-25 14-7 4h-2v2l-6 3-23 13-14 8h-2v2l-12 6-17 10-6 3h-4l-1-8 10-4 28-16 22-13 9-5 11-6 35-21 3-2h3z" fill="#159886"/>
<path transform="translate(388,74)" d="m0 0h2v21l-1 49-8 5-4 2h-3v-32l1-36 5-4z" fill="#20D8BA"/>
<path transform="translate(870,162)" d="m0 0 5 1 12 11 10 12 5 8-2 4-9 4h-12l-8-4-6-7-3-8v-7l4-10z" fill="#C6FDF7"/>
<path transform="translate(745,68)" d="m0 0h8l4 6h3l2 7 1 18 1 13v2h5l-2 19-5 11-4 10-4 7-6 4h-2v2l-5 3-2 2-1 2 2 2-9 6-4 2h-3l-3-3-7-3-4-2 6-3h8v-2l13-5h3v-2l6-4 8-8 8-15 2-14-4-12-1-5-1-23-2 2-1 2h-2l-1 3h-2v-10l-8 2-5 2-5-1 1-5 7-7z" fill="#34414C"/>
<path transform="translate(535,279)" d="m0 0 5 2v12l1 5-6 13-4 13-3 5 1 9-4 6-4 2-3 3 1-5 1-4-1 2h-2l-2 5-3 3 1-5 2-7-4-7 2-9 5-13 5-9h2l1-7 7-5z" fill="#3D4651"/>
<path transform="translate(1526,678)" d="m0 0h16l2 5 2 4-10 4-6 2-5-1-5-5-6-3h-2l3 5 5 5-1 3-16 5-4-1-9-9 1-4h-8l-22 6-1-4 14-3 6-2h7v-2l13-2 18-1z" fill="#E4EDEE"/>
<path transform="translate(1832,744)" d="m0 0h7v3l-22 8-21 10-20 13-14 11-13 12-10 10-9 11-8 10-12 18-5 5v-8l8-12 9-12 12-14 22-22 17-13 15-10 16-9 16-7z" fill="#EAF5F5"/>
<path transform="translate(896,1059)" d="m0 0 3 4 16 39 6 15-1 3h-6l-10-5-6-5-4-7-1-4v-10l1-14z" fill="#2D373E"/>
<path transform="translate(1279,279)" d="m0 0 3 1 3 14 1 3-1 20-2 4-2 9-2 4-5-1-2-7-2-6 1-3h2v2l2-1 1-8-4-1-6 1v2h-2l-7-14-3-10 5 2 5 3 5 2 2 1v2l6 1h3v-2l-4-1-2-1-2-3-5-2-1-3 1-2 9 1v-4z" fill="#3D4550"/>
<path transform="translate(1241,125)" d="m0 0 14 7 9 3 9 6 6 3 9 5 4 3 4 2 1 2 12 6v3l2 1-1 2 4 2-1 4-5-1-24-14-28-16-19-11 1-4h2z" fill="#3E4752"/>
<path transform="translate(492,272)" d="m0 0 4 1 15 13 4 3v2l-27 15-16 10-2-1 1-3h2l1-5 8-16z" fill="#21DCBD"/>
<path transform="translate(1039,1131)" d="m0 0h1l2 10 7 8 10 5 16 4 8 1h49l27-2 18-4 11-4 2 1-9 7-17 5h-8l-8 2-19 1-17 1h-22l-14-3-12-3-7-1-10-5-4-3-2-4-3-2v-13z" fill="#27333C"/>
<path transform="translate(1342,752)" d="m0 0h3l1 2 10 3 9 1 24-1 6-3 5-2 2 3v6l-6 5-7 3-8 2h-19l-14-4-8-6-1-3z" fill="#14B69E"/>
<path transform="translate(1126,751)" d="m0 0 8 2v2l4 1 11 6 14 8 2 1v2l5 2 12 6v2l6 2 8 5v7l3 1-6-1-24-13-15-9-15-8-9-5-10-6 2-4z" fill="#1B6B65"/>
<path transform="translate(1315,274)" d="m0 0 2 1 4 13 5 10 5 11 1 8 2 1-1 2h2v3h2l12 24 6 15 5 10 2 7v3l-2 4-3-5-9-19-4-8-4-10-7-15-7-16-5-11-6-12-4-10 1-5z" fill="#3A4650"/>
<path transform="translate(708,69)" d="m0 0 9 3 3 3-1 9 7 4-1 10-3 8-1 7-2-4-3 7-1-3 1-5v-18l-3-6-3-2h-11l-10 6-10 7h-8l1-5 9-7 7-4 10-6z" fill="#3D4853"/>
<path transform="translate(1159,737)" d="m0 0 3 1-3 1-2 4 5 3 12 4 15 9 4 2h5l3-1v-2l8-4 7-1-3 5 4-1 4-5 6-1v5l-10 6-11 6-7 4-6-1-26-15-13-8-7-3 4-3z" fill="#3D4651"/>
<path transform="translate(1261,717)" d="m0 0 5 2-1 4h2l1 2h5v2l2 1-14 8-5 4-16 8-10 7h-3v-4l-7 3-4 6-1-2h-2l1-4-3-1 9-6h3v-2l12-6 11-6 7-5h2l1-3 4-4z" fill="#34414C"/>
<path transform="translate(536,1253)" d="m0 0 13 4-2 6-13 34-2 2h-9l-3-3 3-10 11-29z" fill="#27E0C1"/>
<path transform="translate(987,1253)" d="m0 0 3 4 13 34 1 6-3 2h-9l-6-12-10-27v-3l7-2h4z" fill="#27E0C1"/>
<path transform="translate(951,119)" d="m0 0 3 1-1 4-5 6 1 5 1 4-3 6-8 9-3-1-3-10-1-3-4-2-9-7 5-5 6-4h7l4 2 5-1z" fill="#354952"/>
<path transform="translate(1489,542)" d="m0 0 2 1-1 39-4 6-7 3-5-1 3-2v-36l1-3-2-1 7-3z" fill="#E8E6E7"/>
<path transform="translate(369,166)" d="m0 0h2l-2 4-14 7h-7l-6 4-5 1-1 5h-2l-1 5v1l4-2 4 1h4l1-3 5 2v2l-27 15-1 1h-5l-1-2h2l1-3 4-4v-2l-4 2-6-1-1-1-11-1-7-6v-7l3-7 2-10 2 2-1 10 1 3v10l10 1 3 2 7-1 6-4 3-1 2-4 3-5 10-5h2v-2h7z" fill="#39444F"/>
<path transform="translate(1715,353)" d="m0 0h1l1 29-8 6-7 3-3-1-1-2v-15l1-10 5-5 5-3z" fill="#13B29B"/>
<path transform="translate(385,39)" d="m0 0h8l2 3 3 11-1 7-7 13h-3l-2 4-9 6-5-1v-7l3-7-2-6 3-1 2 9 7-1 5-7v-15l-7 2-4 5-2 3h-3l-1 2-1-1v-5l5-10z" fill="#3D4651"/>
<path transform="translate(755,1398)" d="m0 0 14 1v37l-1 1h-12l-1-1z" fill="#2AE0C2"/>
<path transform="translate(1656,435)" d="m0 0 7 1 2 1v2l3 1 4 10v6l-4 4-4 1v53h-1l-1 51-1 6h-1v-110l-1-6h-2l-3-9v-7z" fill="#1DC5AC"/>
<path transform="translate(1306,322)" d="m0 0h1l1 53 11 6 16 9 19 10 11 8 4 4-7 1-7-3-16-9-10-7-12-6v-2l-5-1-8-5-1-6 2-1z" fill="#384B53"/>
<path transform="translate(1760,882)" d="m0 0h2v4h5v1l-9 2-9 7-10 11-10 14-8 14-6 13-7 19-3 1v-7l7-21 10-19 10-14 14-15 7-6z" fill="#DDFAF6"/>
<path transform="translate(512,262)" d="m0 0h5l1 2 5 1v2l2 1 2 6 4 5v3l-12 6-4-1-6-7-11-9-1-3 14-5z" fill="#276461"/>
<path transform="translate(452,331)" d="m0 0 4 1 17 17 7 8 5 1 1 4h-2l-1 5-8-1-6-4-9-10-8-7-4-6v-5z" fill="#3B4650"/>
<path transform="translate(495,270)" d="m0 0 4 1 11 9 5 5v2h6l5-4 7-3-1 5-11 6-2 3-4 14-7 21h-2l-2 9-1 2 2 1v7l-3 11-2 3-5-1 1-9 5-14 2-9 5-13 6-18 2-4h-3v-3h2l-5-5-14-12z" fill="#2B3C44"/>
<path transform="translate(1034,422)" d="m0 0 9 1-1 5 4 1 14 8 15 9 14 9 4 2-1 3-6 1-24-14-21-12-5-5-3-4z" fill="#12B09A"/>
<path transform="translate(872,734)" d="m0 0h5l13 12 8 7 11 10 8 7 15 12 8 5-1 5-4-1-7-4-7-5v-2l-3-1-5-6-2-1v-2l-5-1-4-3v-2l-4-1-3-3v-3h-3v-3l-3-1-4-5-6-5-5-6-2-1z" fill="#33404A"/>
<path transform="translate(1491,660)" d="m0 0h7l5 8 2 5-1 4-11 2h-11l-6-10 1-5 6-3z" fill="#CAFDF8"/>
<path transform="translate(1015,1074)" d="m0 0h9v4l-14 2-5 2-33 1-18-1-15-5-1-2 14 1h33z" fill="#26313B"/>
<path transform="translate(1156,657)" d="m0 0 2 1-7 10h-9l-13 4-8 7-8 16-5 8h-5l2-6 6-10 6-11 1-3 1-4 5-3 1-2 4-1 2-2 10-2 1 2-5 1 8 1 1-4 8 3zm-43 16 4 1-3 3z" fill="#34424D"/>
<path transform="translate(1359,632)" d="m0 0h4l-1 4-13 9-11 8h-2v2l-12 7h-4l1-7 4-6 9-7 8-4h5l-1-3 4-2 3 2z" fill="#E9EBEC"/>
<path transform="translate(870,162)" d="m0 0 5 1 12 11 10 12 5 8-2 4-9 4h-12l1-7-2-2-1-9 3-2 7 1 2-3-7-8-8-7-4-1z" fill="#92F6E7"/>
<path transform="translate(1e3 304)" d="m0 0h6l9 5 1 3h2l3 7v9l-5 5-17 5-9-1-2-1 1-4h9l1-2 4-1 2 1v-2l4-1 2-3-1-8h-2l-4-7-4-3z" fill="#34414C"/>
<path transform="translate(1516,656)" d="m0 0 13 2 6 11v3l-18 3h-6l-6-12 1-4z" fill="#CBFDF8"/>
<path transform="translate(1010,286)" d="m0 0 1 4-1 3-19 1-16 3-14 6-9 7-4 5-2 6v9l4 8 9 8 14 6 12 3 1 1 19 1h9v-2l17-4 12-6 9-8 3-3-2 6-5 6-9 5-11 4-16 4-22 1-16-4-9-4-6-3-9-7-5-7v-3h-2v-9l4-11 8-8 16-8 17-4 20-1z" fill="#159482"/>
<path transform="translate(763,137)" d="m0 0 1 3-7 16-3 5-6 4h-2v2l-5 3-2 2-1 2 2 2-9 6-4 2h-3l-3-3-7-3-4-2 6-3h8v-2l13-5h3v-2l6-4 8-8 7-13z" fill="#36424D"/>
<path transform="translate(1404,192)" d="m0 0h6l6 5 5 8 1 9-4 5-7-1-7-7-3-7v-9z" fill="#22E0C0"/>
<path transform="translate(1e3 676)" d="m0 0 4 4 10 5v2l5 2 24 13 3 2 6 2v2h-14l-6-2-8-6-23-13-4-3 1-6z" fill="#1A6A63"/>
<path transform="translate(1348,259)" d="m0 0 3 1 1 26 2 9 8 6 25 14 17 10 3 2-1 3-8-3-2-2-4-1-2-2-7-4-4-1v-2l-5-2-9-5h-2v-2h-2v-2l-6-2-5-5 1-6-4-2-1-15v-14z" fill="#34414B"/>
<path transform="translate(695,99)" d="m0 0h6l2 4v12l-5 10-5 4-5 1v-26z" fill="#435660"/>
<path transform="translate(1080,647)" d="m0 0h10l6 3 4 3-1 5-3 3-6 2h-11l-5-2-3-4v-5l6-4z" fill="#3C4751"/>
<path transform="translate(1481,728)" d="m0 0 5 1 12 7v3l-14 8-6-1-11-7-1-3z" fill="#FEA8A8"/>
<path transform="translate(917,478)" d="m0 0 5 1 11 6 23 13 10 6 5 2-1 4-6 1-7-5-11-6-25-14-7-4 1-3z" fill="#41535D"/>
<path transform="translate(1502,716)" d="m0 0 6 1 12 7v2l-15 9-5-1-13-9 5-4z" fill="#FEA8A8"/>
<path transform="translate(1523,704)" d="m0 0h6l10 7 2 1v2l-14 8-6-1-10-7-2-3z" fill="#FEA8A8"/>
<path transform="translate(1133,88)" d="m0 0h5l21 12 15 9-4 1-1 3 5 1v-2l3 1v2h-2v2l-4-1-12-6-3-3-7-4-7-5-5-2-3 1 1 5 1-2 2 1-1 5h-2v2l-2-1z" fill="#3A4852"/>
<path transform="translate(535,279)" d="m0 0 5 2v12l1 5-6 13-4 13-3 5 1 9-4 6-4 2-3 3 1-5 5-12 2-12 8-17-1-8-4-3 4-5z" fill="#34414C"/>
<path transform="translate(1549,653)" d="m0 0h6l5 5 2 7-3 3-12 2h-6l-3-4-3-6v-3z" fill="#D4F9F8"/>
<path transform="translate(645,197)" d="m0 0h1l1 17 2-4h2l1-3h16l3 3-4 4-1 3h-3v4l-11 5h-5l-1-1-1-9z" fill="#36434E"/>
<path transform="translate(1454,701)" d="m0 0 5 1v2h2l7 8-3 3-13 4h-5l-10-10v-2z" fill="#178172"/>
<path transform="translate(1480,693)" d="m0 0 5 1 9 9v2l-18 6-4-2-9-9 1-2z" fill="#159988"/>
<path transform="translate(1431,672)" d="m0 0h9l6 10v3l-19 3-5-1-4-10v-2z" fill="#22E0C0"/>
<path transform="translate(463,324)" d="m0 0h4l8 16 9 17v2l-4-1-7-7-7-8-12-12 1-3z" fill="#20D8BA"/>
<path transform="translate(1504,685)" d="m0 0h7l9 9-1 3-16 5-4-1-9-9 1-3z" fill="#159A88"/>
<path transform="translate(1467,667)" d="m0 0h3l5 11-1 3-15 2h-6l-6-11v-2l2-1 15-1z" fill="#8DF6E6"/>
<path transform="translate(1764,529)" d="m0 0h5l4 4 1 3-2 5-4 3-2 15-6 18-6 9h-2l1-5 5-10 4-13 1-6v-9l-4-5 1-6z" fill="#505B64"/>
<path transform="translate(288,195)" d="m0 0h1l1 8h7l8 4 1-2v2l4-1-2 5-3 3-1 3h-2v2h-2l-1 3-6 2h-11v-1l9-1-2-4-1-11z" fill="#36424D"/>
<path transform="translate(1118,673)" d="m0 0v3l-6 11-7 11-1 4 3 1-7 3-14-1-1-1-5-2-1-2 9-2 6-5h3v-4h2l1-3 3 2 4-8 3-4 2 1-4 7-3 8h-2v2l-5 2v2l-9 3 4-1 8-3 5-4 6-14z" fill="#34414C"/>
<path transform="translate(1419,500)" d="m0 0 5 2 23 13 5 3 2 4 2 1 1 7-6-2-4-4-3-1v-2l-4-1-4-3-5-2v-2h-5l-5-5-3-1-3-4h2l1-2z" fill="#3D4751"/>
<path transform="translate(1217,231)" d="m0 0 1 2-2 10-1 7v9l2 5 6 1v2l5 1 3 4-12-2-2 1-1 18-4-2-1-4v-13l-1-22 2-7-1-2 2-4h2z" fill="#18776D"/>
<path transform="translate(1475,368)" d="m0 0 5 1-2 1 1 6v29l-1 128h-1l-1-18-1-81 2-57z" fill="#34414C"/>
<path transform="translate(1575,419)" d="m0 0 5 1 4 5-1 5-4 3 1 16 5 22-2 2-3-5-4-17-2-17-5-6 1-5 3-3z" fill="#505B64"/>
<path transform="translate(1869,841)" d="m0 0h7l2 1v3l-3 1-22 2-22 4-16 4v-2l-3-1 7-3 19-5 20-3z" fill="#BEF9F2"/>
<path transform="translate(1645,367)" d="m0 0 5 1 2 1v2l9 3 4 4 9 3 16 10 2 3-2 3-7-2-3-3-7-4-4-1v-2l-9-3v-2l-14-7v-2l-3-1z" fill="#159B89"/>
<path transform="translate(429,399)" d="m0 0 6 1 10 3 2 2-1 8-2 1-2-1v2h-3l-1 4-7 2h-8v-1h6z" fill="#36424D"/>
<path transform="translate(650,169)" d="m0 0 4 3 2 7 2 14 5 3h10l9-2 6-3 2-2v2l2 1-6 5-9 3-8-1h-8l-5-5-2-3-3 6-3-1-2-10 1-6 2-9z" fill="#34414C"/>
<path transform="translate(1600,667)" d="m0 0 4 1-4 2-9 3-10 3-8-1-3 5-16 5-3-1-3-6-1 2-5-2 2-2 20-2 3-2 5 1z" fill="#AFEDE5"/>
<path transform="translate(1095,453)" d="m0 0 5 1 17 10 3 3-1 6-3 3-6-2-14-8 4-5 1-3-5-1z" fill="#FDA8A8"/>
<path transform="translate(1393,233)" d="m0 0 4 2 2 4-5 1-17 11-13 8-1 27h-1v-28l1-5 11-9 11-7 4-3z" fill="#C9F9F6"/>
<path transform="translate(383,47)" d="m0 0h6l1 2v13l-6 8-5 1-3-3v-11l3-6z" fill="#20D7B9"/>
<path transform="translate(1731,625)" d="m0 0 9 3 20 12 9-1 5 5-1 5-4 4h-5l-4-4v-5l-5-2-22-13-2-1z" fill="#515B64"/>
<path transform="translate(1785,887)" d="m0 0h10l18 6 16 9 8 7-1 4-6-3-10-7-12-6-16-5-5-1v-2h-2z" fill="#E2F7F5"/>
<path transform="translate(951,119)" d="m0 0 3 1-1 4-5 6 1 5 1 4-3 6-8 9-2-4-1-5 2-4h2v-8l2-7z" fill="#2A383E"/>
<path transform="translate(1221,232)" d="m0 0h4l1 6 2 1v5l-4 4v10l-3 4h-5l-2-3v-9l3-6 2-10z" fill="#3E4651"/>
<path transform="translate(1e3 513)" d="m0 0 6 1 1 2-1 2h7l3 3 12 7v2l-2 1h-6l-10-6-4-2v-3h-11l-5 3-4 1-5-3 2-3h9z" fill="#DBE8E8"/>
<path transform="translate(1335,613)" d="m0 0h11l6 3v3l-18 6-7-3-9-4 1-2z" fill="#F6F1F1"/>
<path transform="translate(340,96)" d="m0 0 2 1 5 25v6l-10 5-3-1 3-18 2-13z" fill="#3B4B54"/>
<path transform="translate(511,263)" d="m0 0h5v23l-7-6-11-9-1-3z" fill="#21DBBC"/>
<path transform="translate(1295,742)" d="m0 0 2 1-8 6-21 12-17 10-25 15-8 4h-2v-3l14-8 5-1v-2l18-10 15-9 6-3 3-2h3v-2z" fill="#384851"/>
<path transform="translate(1273,424)" d="m0 0 8 2v-2h2v2l3 1 1 2h6v3l6 2 9 6v3l4-1 2 2 4 2h1l4 2 1 5-3 1-3-3-10-5-6-4-4-1-3-3-4-2-14-8-2-1v-2z" fill="#43555F"/>
<path transform="translate(1165,235)" d="m0 0h2v13l-2 2 3 3v10l-2 1-2-10-9-5h-3l-2 6-5-2-2-3v-10l4-1 9 4 2 2 7 2z" fill="#2B373D"/>
<path transform="translate(1538,680)" d="m0 0 5 1 3 4-1 3-15 5-5-1-7-7v-2z" fill="#13B49C"/>
<path transform="translate(991,544)" d="m0 0 5 1 24 14 28 16 24 14v2h-3v-2l-6-1-7-5-10-5-18-11-6-3-14-8-17-10z" fill="#344049"/>
<path transform="translate(509,312)" d="m0 0h4l-3 10-2 7h-2l-2 9-1 2 2 1v7l-3 11-2 3-5-1 1-9 5-14 2-9 5-13z" fill="#3B444F"/>
<path transform="translate(1152,248)" d="m0 0 5 1 8 5 1 2v13l-4 1-10-6v-6l5 5-1-4-5-3v-7z" fill="#FAFAFA"/>
<path transform="translate(524,288)" d="m0 0h4l-1 5-2 7h-2l-2 5-8 19-4 7h-2l2-9 8-23 2-7z" fill="#1ECDB0"/>
<path transform="translate(1550,696)" d="m0 0 7 1 5 3v2l-11 6-6 2-9-6-1-3z" fill="#FEA8A8"/>
<path transform="translate(1361,743)" d="m0 0h21l10 4 1 3-10-2h-19l-5 1 2 3v3l-5-1-2-2-6-1 3-5z" fill="#1DB09C"/>
<path transform="translate(1267,727)" d="m0 0 4 1-3 2-7 3-3 1-2 6-16 8-10 7-2-1-1-5 6-1v-2l3-2h3v-2l7-5 5-1 1-3 8-4z" fill="#41565F"/>
<path transform="translate(1279,279)" d="m0 0 3 1 3 14 1 3v7h-3l-3-3v-4l-4-1-2-1-2-3-5-2-1-3 1-2 9 1v-4z" fill="#3E4550"/>
<path transform="translate(482,277)" d="m0 0h3l-1 4-14 28h-2v-19l10-9z" fill="#20D8BA"/>
<path transform="translate(473,277)" d="m0 0 2 1-1 5-4 6-1 1-1 19 6-2-1 5h-2v5l-4 1-1-11 1-5h-2v18l-2-1v-18l-3-1 2-1v-10l5-4 2-5z" fill="#3A4C54"/>
<path transform="translate(677,805)" d="m0 0 1 2h2l8 19 7 20 2 10 12 38 3 10-1 4-6-18-5-17-12-36-8-22-3-7z" fill="#1DC5AC"/>
<path transform="translate(1126,667)" d="m0 0 5 1v3l-8 6-6 9-8 16-5 1-1-2 6-11 4-6 4-8 6-7z" fill="#41525C"/>
<path transform="translate(1149,257)" d="m0 0 2 1 2 6 9 5 5 2v12l-5-1-17-10-2-4 17 8-3-5-8-4-2-4 1-5z" fill="#29343C"/>
<path transform="translate(1287,269)" d="m0 0h2l-1 5h-3l2 4 2 1-1 8 2 4-1 6v23l-2 4 2 2v4l-7 2 1-4 3-14-1-10v-17l-2-13 1-2h2z" fill="#178376"/>
<path transform="translate(745,68)" d="m0 0 5 3 1 3-4 4 4-1 3 4-1 5-2 2-1-2v-6l-8 2-5 2-5-1 1-5 7-7z" fill="#3D4550"/>
<path transform="translate(353,72)" d="m0 0 4 1 2 2v7l1 9v5l3 2-1 13-2 3-8-36v-5z" fill="#3D4752"/>
<path transform="translate(1255,294)" d="m0 0 2 1 7 15 1 1 1-2 7-1v2h3l1 4-2 5h-2v-2h-2l-1 4-2 3-4-6-4-3v-7l-3-4-2-6z" fill="#415962"/>
<path transform="translate(1251,293)" d="m0 0 3 1 3 5 2 6 2 3v7l4 3-2 6h-6l-2-1v-7h-2v-7l-1-7 2-2z" fill="#3B444E"/>
<path transform="translate(1219,269)" d="m0 0 10 2 4 3v2l3 1-3 2-9-1-2 6-1 2h-4l-1-3v-12z" fill="#3E4651"/>
<path transform="translate(385,39)" d="m0 0h8l2 3-1 4v-2l-5 1-6 3-5 6-2 3h-3l-1 2-1-1v-5l5-10z" fill="#3D4550"/>
<path transform="translate(1662,469)" d="m0 0h1l2 102-1 3-3-1z" fill="#12B19A"/>
<path transform="translate(1183,666)" d="m0 0 7 6 4 6 2 1 1 6v9l-4 10-2-1v-2l-1-2 2-6-1-9-5-8-4-5-1-4z" fill="#42545E"/>
<path transform="translate(526,257)" d="m0 0 3 3 3 1 3 6-1 5-5 2-1-2-4-2-2-4-4-2-1 2v-4l-9 1-4 1 2-3 8-1 3-2 1 5h3v-2l5-2z" fill="#3C444F"/>
<path transform="translate(1143,129)" d="m0 0 5 1 14 8 5 3v8l-2 1-1-5-10-3-6-5-6-2v-5z" fill="#2B373E"/>
<path transform="translate(1280,420)" d="m0 0 5 2 25 14 8 5-2 5-5-1 1-2h-4l-1-3-5-2-3-3-6-3v-3l-7 1-1-3-2-1v-2h-3z" fill="#384651"/>
<path transform="translate(1764,877)" d="m0 0h2v2l3 1-3 2 1 1 24 3v1h-6v2l2 1-29-1 4-3v-4l-6 4-2-1z" fill="#BEF8F2"/>
<path transform="translate(1336,789)" d="m0 0 8 1 16 3 1 1h19l15-3h5l-1 3-18 3h-25l-15-4-5-3z" fill="#DCD9DA"/>
<path transform="translate(900,197)" d="m0 0h4l6 16 2 12-3 9-1-3v-16l-4-11-5-1-1 3-8 1-1-2-11-2-2-2h15z" fill="#158B7A"/>
<path transform="translate(269,179)" d="m0 0h2l1 7 3 22-6-1-3-2-1-9 2-13z" fill="#222D37"/>
<path transform="translate(866,472)" d="m0 0 5 1 24 14 28 16 5 3 1 3-4-1-9-5-4-2v-2l-6-2-8-5-11-6-10-6-7-4z" fill="#34414A"/>
<path transform="translate(511,292)" d="m0 0h2v2h3l-1 3h-4l-26 15-8 5h-2v-4l17-10z" fill="#2C3C45"/>
<path transform="translate(1043,513)" d="m0 0 6 1 2 1v2l-12 7-1 1-7-1-8-5v-3l4-1 9 3 5-3h2z" fill="#394953"/>
<path transform="translate(1227,333)" d="m0 0 3 1v3h5l7 3 11 7 2 4h-8l-14-7-3-3z" fill="#3D4651"/>
<path transform="translate(1369,306)" d="m0 0 5 2 18 10 15 9-1 3-8-3-2-2-4-1-2-2-7-4-4-1v-2l-5-2-6-4z" fill="#36434E"/>
<path transform="translate(1832,744)" d="m0 0h7v3l-22 8-9 4-2-1 7-4-5 2-14 7-2-1 10-6 18-8z" fill="#DEEAEA"/>
<path transform="translate(348,65)" d="m0 0h3l-2 5-5 5-6 3-8 5v-3h-2l2-5 11-8z" fill="#3C4751"/>
<path transform="translate(1766,779)" d="m0 0 2 1-1 1 3 2-9 7-12 11-9 9h-3l2-4 9-9 2-4 12-11z" fill="#ECF8F8"/>
<path transform="translate(1233,326)" d="m0 0 5 5 8 7 7 4 5 3v2h6v4h-4l-12-6-12-8-4-8z" fill="#177B6F"/>
<path transform="translate(1479,551)" d="m0 0 5 1v29l-3 4h-2z" fill="#D9DDDF"/>
<path transform="translate(1664,531)" d="m0 0h1l1 24 2 2 6-8 4-2-2 6-10 19v3h-2z" fill="#1DC5AC"/>
<path transform="translate(1133,88)" d="m0 0h5l3 2 1 5h5l1 4 4 2 5 3 2 3-6-1-9-7-6-3-4 1 1 5 1-2 2 1-1 5h-2v2l-2-1z" fill="#3B4550"/>
<path transform="translate(1499,667)" d="m0 0 3 3 1 6-11 1-1 1h-8l-1-5 5-3z" fill="#8DF6E6"/>
<path transform="translate(1661,440)" d="m0 0 5 1 3 7 1 9-5 2-3-2v-4h-2l-1-7z" fill="#12B19A"/>
<path transform="translate(1037,432)" d="m0 0 4 1 3 3 18 10 21 12 4 4h-4l-11-6-9-6-5-2-11-7-10-7z" fill="#36464F"/>
<path transform="translate(928,123)" d="m0 0 2 1 4 10v7l1 2-3-1v-2l-4-2-9-7 5-5z" fill="#404954"/>
<path transform="translate(1097,637)" d="m0 0 5 1 7 4 6 3-1 4-5 1-10-5-5-4 1-3z" fill="#3B4953"/>
<path transform="translate(1283,452)" d="m0 0 5 1 4 4 2 8-2 3-6-2-3-3-2-8z" fill="#3E4F59"/>
<path transform="translate(1566,675)" d="m0 0h6l-1 4-10 4-9 2-3-4 1-3z" fill="#1ECBB1"/>
<path transform="translate(885,743)" d="m0 0 4 2 20 18 8 7 7 6v2l-5-2v-2l-3-1v-2l-4-1v-2l-3-1v-2l-4-1v-2l-4-2-11-10v-2h-3l-3-4z" fill="#2F3A42"/>
<path transform="translate(484,361)" d="m0 0h5v5l-3-1 1 2 1 1h5l-1 3h7v-2l4-1-2 5-5 2-11-1-6-2 2-1 2-6z" fill="#34414C"/>
<path transform="translate(1015,313)" d="m0 0 5 3 1 2v10l-3 5-10 3h-6v-2l9-4h3l1-4h2z" fill="#27353B"/>
<path transform="translate(488,274)" d="m0 0h1l-1 7-10 21-3 5h-3l-1 2 1-6 10-19 5-9z" fill="#313D45"/>
<path transform="translate(1235,213)" d="m0 0 4 1 15 8 10 6 2 5 1 2-5-2-4-3v-2h-4v-2l-6-2-9-5-4-1z" fill="#187E71"/>
<path transform="translate(1516,656)" d="m0 0 13 2 3 5-1 3-1-2-11-2h-7l-3 2-2 3-2-4 1-4z" fill="#D4F9F8"/>
<path transform="translate(1217,264)" d="m0 0 6 1v2l5 1 3 4-12-2-2 1-1 18-4-2-1-4v-4l3-1v-12z" fill="#3B585F"/>
<path transform="translate(1034,673)" d="m0 0h6l9 6 4 2v4h-7l-11-6-2-2z" fill="#3A444E"/>
<path transform="translate(1117,625)" d="m0 0h6l12 7 1 5-8-1-8-5-5-3v-2z" fill="#37464E"/>
<path transform="translate(1046,666)" d="m0 0 4 1 9 5 4 1 1 5-6 1-14-8v-4z" fill="#3B4952"/>
<path transform="translate(1057,660)" d="m0 0 5 1 13 7-1 4h-7l-13-8v-3z" fill="#3A4750"/>
<path transform="translate(452,308)" d="m0 0 5 1-1 9h-3l1 6 3 3-4 1-3-2-2-2v-9l3-6z" fill="#3A434E"/>
<path transform="translate(1107,631)" d="m0 0h5l14 9-1 3h-7l-12-7z" fill="#3A4751"/>
<path transform="translate(1010,519)" d="m0 0 5 1 14 8v2l-2 1h-6l-10-6-4-2 1-3z" fill="#3E4F59"/>
<path transform="translate(520,267)" d="m0 0 4 2 7 10v3l-8 4h-3z" fill="#1FD2B4"/>
<path transform="translate(1352,216)" d="m0 0 2 2 1 27-1 31h-1l-1-5z" fill="#E5E7E7"/>
<path transform="translate(1708,884)" d="m0 0 2 1-3 4v49h2l-2 14v5l-2 1v-72z" fill="#14A28E"/>
<path transform="translate(944,517)" d="m0 0 5 1 26 15 14 8 1 3-5-2-8-4-6-4-9-5-11-6v-2l-5-1z" fill="#374550"/>
<path transform="translate(1188,1124)" d="m0 0h10l3 5 1 10-4 2-2-7-5-5-7-3z" fill="#27323C"/>
<path transform="translate(1234,148)" d="m0 0h4l6 1 14 8-1 5h-2l-1-2-4-1-5-2-1-2-10-5z" fill="#36444E"/>
<path transform="translate(405,127)" d="m0 0h2l-1 4-9 18h-2l-2 4-6 5h-2v2l-5 3h-2v2l-4 1-2-2 14-8 4-2 1-3h2l2-6 4-8h2l2-8z" fill="#34414C"/>
<path transform="translate(1395,787)" d="m0 0 3 1-2 1 10-1-2 4-4 1v-2l-20 4h-19v-1l18-1v-3l12-2z" fill="#EBF3F3"/>
<path transform="translate(1348,752)" d="m0 0h7l2 2 14 2h17l-4 2-10 1h-9l-12-2-6-2z" fill="#8CF5E5"/>
<path transform="translate(1104,139)" d="m0 0h1l1 7v30l-3 3-1-23z" fill="#34414C"/>
<path transform="translate(369,166)" d="m0 0h2l-2 4-14 7h-7l-6 4-5 1v2h-2l1-4 10-5h2v-2h7z" fill="#34414C"/>
<path transform="translate(342,159)" d="m0 0 6 3 1 5-2 4-7 2-2-2 1-9z" fill="#445660"/>
<path transform="translate(1477,720)" d="m0 0 3 1-11 7-11 6-3-1-1-1-1-2h2v-2z" fill="#41535D"/>
<path transform="translate(1055,557)" d="m0 0 4 1 11 6-1 3h-2v2l-5-2-11-6z" fill="#3E535C"/>
<path transform="translate(1165,235)" d="m0 0h2v13l-2 2 3 3v10l-2 1-2-10-9-5v-2l-4-2 3-1 3 2 8 1z" fill="#27333A"/>
<path transform="translate(967,468)" d="m0 0 5 1-2 5-5 1v4l-3 2-7-1 1-3h2l1-4h2l1-3z" fill="#DDF2F2"/>
<path transform="translate(1054,334)" d="m0 0 1 2-6 9-7 5-14 5-4 1h-10v-1l17-4 12-6 9-8z" fill="#15907F"/>
<path transform="translate(1096,567)" d="m0 0 5 2-1 3-14 7h-5l-1-3 11-6z" fill="#2B3842"/>
<path transform="translate(1117,555)" d="m0 0 5 1v3l-15 8-5-2 4-4z" fill="#3F505A"/>
<path transform="translate(677,805)" d="m0 0 1 2h2l8 19 7 20-1 4-4-12v-3l-3-1-9-24z" fill="#16B9A1"/>
<path transform="translate(463,302)" d="m0 0h1v17l-6 5h-3l1-5 3-8z" fill="#21D4B7"/>
<path transform="translate(1869,841)" d="m0 0h7l2 1v3l-3 1-19 1-1-3 3-2z" fill="#DAF6F3"/>
<path transform="translate(1505,708)" d="m0 0 3 1-10 5-13 5-5 2-2-1v-2l16-8z" fill="#DEE1E3"/>
<path transform="translate(1643,368)" d="m0 0 2 1-1 1 2 1v2l6 2 8 5v2l7 2 2 1v2l5 1 9 5-2 1-7-3-24-13-9-7z" fill="#19BBA3"/>
<path transform="translate(1249,699)" d="m0 0 6 2 22 13 1 2-4 1-9-5v-2l-6-2-9-6z" fill="#36434E"/>
<path transform="translate(1403,491)" d="m0 0 5 2 11 6v1h-5v3l-5-1v-2l-4-1-3-1v-3l-3-1 4-2z" fill="#394852"/>
<path transform="translate(495,270)" d="m0 0 4 1 11 9 5 5v2l2 1-3 1-11-9-7-6z" fill="#274047"/>
<path transform="translate(1783,865)" d="m0 0h2v2l-1 1 3 1-11 6-6 4h-4l1-4 14-9z" fill="#BEF7F0"/>
<path transform="translate(991,544)" d="m0 0 5 1 24 14 5 4-3 1-14-8-17-10z" fill="#35434D"/>
<path transform="translate(473,336)" d="m0 0 4 1 9 17 2 5-1 4-7-11-7-14z" fill="#293E46"/>
<path transform="translate(1242,248)" d="m0 0 1 2h2v5h2l1 5 1 2-2 2-4-1-3-3-1-9v-2z" fill="#3D4651"/>
<path transform="translate(1784,768)" d="m0 0 1 4-13 9-1 1h-5l4-6 10-7z" fill="#EEF8F8"/>
<path transform="translate(1e3 329)" d="m0 0 1 2h3v2l-6 1v2l4 1-9 1-7-2 1-4h9l1-2z" fill="#3B4954"/>
<path transform="translate(1031,699)" d="m0 0 5 1 8 4 5 2 3-1 1 3h-14l-7-4z" fill="#1B7169"/>
<path transform="translate(1249,253)" d="m0 0h2l2 6h2l1 4-6 4-1 2h-4l-2 1 1-6 2-2h3z" fill="#376165"/>
<path transform="translate(695,99)" d="m0 0h6v8l-4 1h-6l-2 1v-6z" fill="#384B53"/>
<path transform="translate(1164,254)" d="m0 0 2 2v13l-4 1-10-6v-6l5 5 2-2 2 2v3h2z" fill="#E0DADB"/>
<path transform="translate(1165,194)" d="m0 0 3 1v10h-3v3l-6-2v-6l3-1 2-4z" fill="#3A4953"/>
<path transform="translate(584,504)" d="m0 0h3v2l10 3 2 2-1 2h-6l-1 1-3 1-5-7z" fill="#34414C"/>
<path transform="translate(1248,224)" d="m0 0 6 2v2h4l3 6-1 4-5-1-3-4-1-5-3-1z" fill="#3A444E"/>
<path transform="translate(1261,161)" d="m0 0 5 1 14 8v3l-7-1-4-2-1-1-5-3 1-3-3-1z" fill="#36444E"/>
<path transform="translate(1112,676)" d="m0 0h2l-2 5-6 13-6 5-8 3-4-1 6-3h4v-2l5-2v-2h2l1-4 3-8z" fill="#445660"/>
<path transform="translate(1487,684)" d="m0 0h5l-4 3-19 5-8 2-1-4 14-3 6-2z" fill="#DADFE1"/>
<path transform="translate(1336,789)" d="m0 0 8 1 16 3 2 4-11-1-12-4z" fill="#DFE3E4"/>
<path transform="translate(1766,779)" d="m0 0 2 1-1 1 3 2-9 7-2 2-5 2-2 1 4-8z" fill="#E1F4F3"/>
<path transform="translate(1046,672)" d="m0 0 12 6h5l-1 2h-8l-1 4v-3l-6-2-7-5 3-1z" fill="#158F7F"/>
<path transform="translate(1432,280)" d="m0 0h3l-1 5-7 6-4 3-4-1 7-8 2-2h3z" fill="#B0F6ED"/>
<path transform="translate(896,199)" d="m0 0 3 1-1 6-8 1-1-2-11-2-2-2h15z" fill="#158D7C"/>
<path transform="translate(1057,666)" d="m0 0 6 2 4 3 6 1-4 2h-4l1 2-2 2-1-5-6-1-7-4v-1z" fill="#168F7F"/>
<path transform="translate(902,445)" d="m0 0 7 1 6 3v3l-7 1-8-5v-2z" fill="#3B4B55"/>
<path transform="translate(1245,322)" d="m0 0 2 4 1 5-2 5-4-2-3-3 1-5 3-1v-2z" fill="#3D454F"/>
<path transform="translate(1170,109)" d="m0 0 8 2 3 2v3l3 1-1 1 2 1-1 2-7-2-2-1v-3h2l-2-2-2 2-4-2z" fill="#38444F"/>
<path transform="translate(327,89)" d="m0 0h3l-1 12-3 17h-1l-1-6 1-9v-11h2z" fill="#3E4752"/>
<path transform="translate(1663,542)" d="m0 0h1l1 29-1 3-3-1 1-30z" fill="#159A88"/>
<path transform="translate(842,203)" d="m0 0 5 2 4 5 2 5 1 3h-3l-11-13z" fill="#238D7E"/>
<path transform="translate(1336,513)" d="m0 0 2 3v8l-4 5-7 4h-2v-2l5-2 2-6 3-5z" fill="#F5F4F4"/>
<path transform="translate(1009,306)" d="m0 0 5 1 4 3v2h2l3 7v9l-3 2v-14l-4-2-5-4z" fill="#275656"/>
<path transform="translate(1153,185)" d="m0 0 1 2 4 2 2 6-1 1h-5l-5-6 1-4z" fill="#34414C"/>
<path transform="translate(1057,768)" d="m0 0h6l-5 4-7 2h-8l-7 1 1-2z" fill="#34414C"/>
<path transform="translate(1011,685)" d="m0 0 6 2 34 19-4 1-8-5-10-5-18-11z" fill="#0C453D"/>
<path transform="translate(1491,660)" d="m0 0h7l2 4h-14l-10 5 1-5 6-3z" fill="#D4F9F8"/>
<path transform="translate(951,119)" d="m0 0 3 1-1 4-6 7-4-2-1-3z" fill="#25313B"/>
<path transform="translate(769,51)" d="m0 0 2 3 1 6h2v10l-4 2-1-4z" fill="#34414C"/>
<path transform="translate(1093,1047)" d="m0 0 3 3 2 5v11l-1 3h-2l-1-3z" fill="#2C3640"/>
<path transform="translate(1176,663)" d="m0 0 2 2 3-1 5 2 9 7 1 3-2 3-8-10-3-2h-2l2 4-4-2-5-3z" fill="#34414C"/>
<path transform="translate(465,302)" d="m0 0h2l1 15 5-3 3 1-3 4-3 1-1 3-5-1z" fill="#24353D"/>
<path transform="translate(1235,279)" d="m0 0 4 1 3 3 4-1 1 4-5 2-8-1-1-3z" fill="#3D454F"/>
<path transform="translate(1309,189)" d="m0 0 6 1 10 6 1 5-4-1v-2l-5-1-7-4z" fill="#36444E"/>
<path transform="translate(1481,371)" d="m0 0 4 1 5 3v8l-4-1-6-8z" fill="#25303A"/>
<path transform="translate(982,356)" d="m0 0 23 1 16-1-4 2-5 1-22 1-8-2z" fill="#168575"/>
<path transform="translate(308,182)" d="m0 0 5 2v3l2 1-2 3h-7l-2-1 1-6z" fill="#445660"/>
<path transform="translate(1815,750)" d="m0 0h7l-1 2-4 2-2 2-9 3 3-3 4-2-5 2-14 7-2-1 10-6z" fill="#DDEDEE"/>
<path transform="translate(1051,504)" d="m0 0 4 1 7 4v2l-7 1-7-3 1-4z" fill="#3E4F59"/>
<path transform="translate(1034,422)" d="m0 0 9 1-2 10-5-3-3-4z" fill="#FAAEAD"/>
<path transform="translate(1160,222)" d="m0 0 3 1 2 3v9l-3 1-4-7v-5z" fill="#445660"/>
<path transform="translate(1304,435)" d="m0 0 6 1 8 5-2 5-5-1 1-2h-4l-1-3-3-2z" fill="#3A4651"/>
<path transform="translate(1041,431)" d="m0 0 1 2 6 2 14 9 5 3-4 1-17-10-5-3z" fill="#1AB49D"/>
<path transform="translate(1217,231)" d="m0 0 1 2-3 15-4 2-1-2 2-7-1-2 2-4h2z" fill="#18766B"/>
<path transform="translate(1670,380)" d="m0 0 5 2 14 8 3 4-2 3-7-2 4-2-5-4-11-7z" fill="#12B19A"/>
<path transform="translate(1248,272)" d="m0 0h3l1 12 4 1 6 3-2 2-4-2h-5l-3-3z" fill="#18A591"/>
<path transform="translate(1370,250)" d="m0 0 3 1-1 3-8 5-1 27h-1v-28l1-5z" fill="#C2F4EE"/>
<path transform="translate(1211,199)" d="m0 0 5 1 2 7v4l-6 1-1-6z" fill="#19756B"/>
<path transform="translate(1152,173)" d="m0 0 5 1 3 6v2l-6 1v-2h-2l-2-4v-3z" fill="#34414C"/>
<path transform="translate(840,147)" d="m0 0 7 1 8 3-4 1-14-1-6 4-4 3 2-5 7-5z" fill="#158F7E"/>
<path transform="translate(1712,351)" d="m0 0 5 1v25h-1l-1-23-9 4-4 1 1-3z" fill="#4BDBC6"/>
<path transform="translate(1138,338)" d="m0 0 5 2 9 5-3 1v2h-3l-4-4-3 1 1 3h-2l-1-7z" fill="#3B4853"/>
<path transform="translate(1290,305)" d="m0 0 2 4-1 4h2l1 10-1 4h-3l-2-3h-2l1-3h3z" fill="#3D4550"/>
<path transform="translate(1849,843)" d="m0 0h8l-2 1 1 3-12 2-5-1 1-2h3v-2z" fill="#C7F8F4"/>
<path transform="translate(1118,630)" d="m0 0 5 2 5 4-2 2 1 4-1-2-5-2-8-5v-1l5-1z" fill="#168D7E"/>
<path transform="translate(509,312)" d="m0 0h4l-3 10-2 7-2-1-3 7-1-3 6-16z" fill="#2D424A"/>
<path transform="translate(1160,208)" d="m0 0 4 4 1 2v6l-5-1-3-4v-5z" fill="#41525C"/>
<path transform="translate(724,945)" d="m0 0h2l10 28v5l-2-3-10-27z" fill="#17BAA2"/>
<path transform="translate(1249,738)" d="m0 0h6l-4 4-16 9-4 2 1-3 9-6h2l1-3h4z" fill="#36444F"/>
<path transform="translate(1526,678)" d="m0 0h16v2l-12 2h-9l1-3z" fill="#E2EAEB"/>
<path transform="translate(1466,480)" d="m0 0h1l2 33-2 6h-1z" fill="#3C444F"/>
<path transform="translate(1037,432)" d="m0 0 4 1 3 3 18 10-4 2-11-7-10-7z" fill="#394853"/>
<path transform="translate(1146,202)" d="m0 0h3l6 9-5 2h-2l-3-5z" fill="#445660"/>
<path transform="translate(689,119)" d="m0 0h6l2 5-4 5h-4z" fill="#3E4550"/>
<path transform="translate(1141,91)" d="m0 0 5 2 13 7-2 2v3l-9-6-3-3-3-1z" fill="#42545E"/>
<path transform="translate(1782,717)" d="m0 0h2v11l-5 2-1-2 1-9z" fill="#222D37"/>
<path transform="translate(879,458)" d="m0 0h7l6 3-3 3-5 1-6-4z" fill="#445660"/>
<path transform="translate(1235,777)" d="m0 0h2l-1 3-10 6-8 4h-2v-3l14-8z" fill="#384952"/>
<path transform="translate(409,396)" d="m0 0 6 1v5h-2l1 3h-2l-1 2-5-7v-3z" fill="#222D37"/>
<path transform="translate(1222,316)" d="m0 0h3l1 5-2 4h-7l-1-1v-5l5-1z" fill="#354049"/>
<path transform="translate(1204,128)" d="m0 0 5 1 7 4 1 3-5 1-2-1v-2l-7-2z" fill="#384651"/>
<path transform="translate(1210,109)" d="m0 0 5 1 3 1v4h-2l-1 3-6-2v-3z" fill="#3F4C56"/>
<path transform="translate(1140,768)" d="m0 0 5 1 16 9-1 3-19-10z" fill="#394651"/>
<path transform="translate(1254,765)" d="m0 0 2 1-1 3-16 9-4-2 18-10z" fill="#364E56"/>
<path transform="translate(1010,519)" d="m0 0 5 1 4 2-1 4-4 1-7-4 1-3z" fill="#374650"/>
<path transform="translate(378,149)" d="m0 0 2 1-8 7v1l-6 2-5 4-4-1v-2l10-5h2l1-5 1 2h2v-2z" fill="#315056"/>
<path transform="translate(324,113)" d="m0 0h1v10l-2 10h-3v-12z" fill="#3E4752"/>
<path transform="translate(511,292)" d="m0 0h2v2h3l-1 3h-4l-8 5-4-2 5-4z" fill="#314149"/>
<path transform="translate(1246,290)" d="m0 0h1l1 8-3 3-3 1 1 2-4-1v-6h2v-3l3-1z" fill="#3A434E"/>
<path transform="translate(1128,57)" d="m0 0 5 1 10 7 6 3-4 2-14-9v-2h-3z" fill="#34414C"/>
<path transform="translate(913,1066)" d="m0 0 6 1 17 6-2 1v2l-6-2-5-2-7-2z" fill="#2B3740"/>
<path transform="translate(1006,531)" d="m0 0 9 1 3 2v2l-6 2-7-4z" fill="#35444E"/>
<path transform="translate(1523,330)" d="m0 0h1v51l-4-2 3-1z" fill="#B3EBE3"/>
<path transform="translate(1263,289)" d="m0 0 10 5 7 3 2 4-8-1v-2h-3v-2l-5-2-4-4z" fill="#29716E"/>
<path transform="translate(1145,216)" d="m0 0 6 1 2 6-1 2-5-1-3-3z" fill="#445660"/>
<path transform="translate(1362,156)" d="m0 0h1v10h2l-1 28h-1l-1-18z" fill="#DCF4F4"/>
<path transform="translate(1764,877)" d="m0 0h2v2l3 1-3 2 1 1 10 1v1h-14l-1-2-5 2h-3z" fill="#A9F8ED"/>
<path transform="translate(1391,874)" d="m0 0h3v2l-9 3-10 1h-11l3-2 13-1z" fill="#33404A"/>
<path transform="translate(912,439)" d="m0 0h7l5 3v2l-7 1-6-3z" fill="#42545E"/>
<path transform="translate(467,298)" d="m0 0h1v11l6-2-1 5h-2v5l-4 1-1-11z" fill="#325F61"/>
<path transform="translate(551,264)" d="m0 0h2l4 14v6l-5-3z" fill="#34414C"/>
<path transform="translate(1142,95)" d="m0 0h5l1 4 4 2 5 3 2 3-6-1-9-7z" fill="#38424D"/>
<path transform="translate(1464,665)" d="m0 0h5l1 2-8 2-15 1-1 2-1-3 5-2z" fill="#CEFCF9"/>
<path transform="translate(477,346)" d="m0 0 3 3 4 8v2l-4-1-7-7 1-2z" fill="#1BBDA5"/>
<path transform="translate(944,321)" d="m0 0h1l2 12 6 8 3 3-1 2-7-6-3-5v-3h-2v-9z" fill="#158D7D"/>
<path transform="translate(1149,257)" d="m0 0 2 1 2 6 4 2v4l-6-2-3-3-1-6z" fill="#2A363F"/>
<path transform="translate(1791,861)" d="m0 0 6 1v2l-8 4-7 1 1-2h2v-3z" fill="#DEF5F2"/>
<path transform="translate(1295,742)" d="m0 0 2 1-8 6-9 5h-5l2-2h3v-2z" fill="#374E56"/>
<path transform="translate(605,521)" d="m0 0 7 1 7 4-1 3-5-2-1 2-4-1-3-4z" fill="#38434E"/>
<path transform="translate(1422,503)" d="m0 0 5 1 13 7-1 2-6-1-1-2h-3v-2l-8-2z" fill="#384651"/>
<path transform="translate(1008,294)" d="m0 0h1l1 10 5 1 3-7 2-3-1 9-2 4-5-1-4-2-1-2v-7z" fill="#1BBCA5"/>
<path transform="translate(517,273)" d="m0 0h2l1 2v11l2 1-5 1-2-2z" fill="#345358"/>
<path transform="translate(1762,883)" d="m0 0 1 2h12l-1 4h-16l4-3z" fill="#C6F9F5"/>
<path transform="translate(1077,700)" d="m0 0 4 2 4 1 2-1v2l7 2v1h-12l-2-1v-2l-6-2z" fill="#40555E"/>
<path transform="translate(484,363)" d="m0 0h2l3 3 1-3v2h4l1 2h5l-1 4-5 1-2-1v-2h-5z" fill="#3F4D57"/>
<path transform="translate(1397,188)" d="m0 0 3 1 1 6h-2l-2 4-3-2v-6z" fill="#D3FAF9"/>
<path transform="translate(510,654)" d="m0 0 2 1-3 3-2-1zm-5 4 2 1-3 4h11l8 1v1l-19 1-5-1z" fill="#22C3AB"/>
<path transform="translate(1098,589)" d="m0 0 3 1-6 2v2l-7 3h-8l-6-3v-2l5 1 6 2z" fill="#36444E"/>
<path transform="translate(1095,453)" d="m0 0 5 1 5 5-4 4-2 4-3-1 4-5 1-3-5-1z" fill="#B6F3EB"/>
<path transform="translate(517,296)" d="m0 0 1 3-5 13-3 1 1-6 3-9z" fill="#2B3C45"/>
<path transform="translate(638,740)" d="m0 0 6 4v3l3 1 7 10 1 5-3-3-8-11-6-7z" fill="#18BCA4"/>
<path transform="translate(1108,637)" d="m0 0 10 5-3 2h-5l-5-4-3-2z" fill="#159382"/>
<path transform="translate(974,511)" d="m0 0 8 1-1 4-1 1-7-1-2-1 1-3z" fill="#34434D"/>
<path transform="translate(1e3 304)" d="m0 0h6l2 2 3 10h-3l-4-7-4-3z" fill="#3A444F"/>
<path transform="translate(1325,197)" d="m0 0 5 2 11 6-2 2-4-1-9-5z" fill="#3A4954"/>
<path transform="translate(488,274)" d="m0 0h1l-1 7-4 8-4-1 4-8z" fill="#293C44"/>
<path transform="translate(1214,248)" d="m0 0 1 2v13l-2 5h-1l-1-8v-10z" fill="#19746A"/>
<path transform="translate(1273,240)" d="m0 0 8 2 1 5-6 2-3-6z" fill="#3E4550"/>
<path transform="translate(1247,153)" d="m0 0 5 1 6 3-1 5h-2l-1-2-4-1-3-3z" fill="#35424C"/>
<path transform="translate(1169,107)" d="m0 0 5 2-4 1-1 3 5 1v-2l3 1v2h-2v2l-4-1-8-4v-2l4 1-1-1z" fill="#404C56"/>
<path transform="translate(1600,667)" d="m0 0 4 1-4 2-9 3-10-1 4-2z" fill="#D9DDDF"/>
<path transform="translate(939,424)" d="m0 0 7 2 1 2-3 2h-6l-3-2 1-3z" fill="#3E515A"/>
<path transform="translate(1152,248)" d="m0 0 5 1 4 2-1 2-5-2v2l2 1-2 2 1 2-5-2v-7z" fill="#E9DCDD"/>
<path transform="translate(1552,675)" d="m0 0h14v1l-11 2h-7l-1 2-5-2 2-2z" fill="#D5EAE9"/>
<path transform="translate(483,308)" d="m0 0 4 1v2l-10 6h-2v-4z" fill="#2E3B45"/>
<path transform="translate(390,43)" d="m0 0 4 1v5h-2l-1 11h-1l-1-13h-5l3-2z" fill="#386065"/>
<path transform="translate(1838,845)" d="m0 0h5l-3 2 4 2-14 3 1-4z" fill="#B8F8F1"/>
<path transform="translate(1055,580)" d="m0 0 14 7 3 2v2h-3v-2l-6-1-7-5-3-2z" fill="#374550"/>
<path transform="translate(984,518)" d="m0 0h7l2 1-2 4-4 1-5-3z" fill="#33424C"/>
<path transform="translate(1043,513)" d="m0 0 6 1 2 1v2l-7 4-2-1v-2l-2-2 3-1z" fill="#3E4F59"/>
<path transform="translate(906,471)" d="m0 0 7 2v3l-5 2-5-2v-3z" fill="#374751"/>
<path transform="translate(894,465)" d="m0 0h5l3 2-2 4-8-1v-3z" fill="#3E4F59"/>
<path transform="translate(1231,263)" d="m0 0 4 1 3 1 2 7h-5l-3-5z" fill="#3E4550"/>
<path transform="translate(930,122)" d="m0 0h7l-2 9v2h-2l-4-9z" fill="#36444F"/>
<path transform="translate(1819,901)" d="m0 0 9 2 6 5-1 3-4-2-10-7z" fill="#EAF2F3"/>
<path transform="translate(997,524)" d="m0 0 7 1-1 4-5 1-5-3z" fill="#303E48"/>
<path transform="translate(1399,493)" d="m0 0h5l2 4 4 1 3 1 1 4-5-1v-2l-4-1-3-1v-3l-3-1z" fill="#3E4650"/>
<path transform="translate(1054,334)" d="m0 0 1 2-6 9-7 5-2-1 4-5 8-7z" fill="#158B7A"/>
<path transform="translate(512,314)" d="m0 0 1 4h2l-2 6-4 7h-2l2-9z" fill="#15A792"/>
<path transform="translate(1255,294)" d="m0 0 2 1 7 15 1 5-4-3-6-14z" fill="#198477"/>
<path transform="translate(1282,173)" d="m0 0 5 1 5 3-2 5-7-4 1-2h-5l1-2z" fill="#35434D"/>
<path transform="translate(1352,829)" d="m0 0 7 1 5 5 1 9-3-3-3-7-7-4z" fill="#445660"/>
<path transform="translate(1395,787)" d="m0 0 3 1-2 1 10-1-2 4-4 1v-2l-8 1v-2l-2-1z" fill="#E4EDED"/>
<path transform="translate(1461,726)" d="m0 0h3l-2 4-4 4-3-1-1-1-1-2h2v-2z" fill="#384751"/>
<path transform="translate(620,721)" d="m0 0 4 2 8 7 6 8-1 2-12-13z" fill="#17BBA3"/>
<path transform="translate(1195,679)" d="m0 0h1l1 6v9l-4 10-2-1 3-9v-11z" fill="#33404B"/>
<path transform="translate(507,658)" d="m0 0 5 3 10 2v1h-19l2-4z" fill="#12B19A"/>
<path transform="translate(1652,369)" d="m0 0 6 2 11 6 1 3-5-1-4-3v-2l-5-1-4-2z" fill="#17BAA2"/>
<path transform="translate(1708,951)" d="m0 0 1 4 1 7-2 5-3 1v-7z" fill="#CEF3EE"/>
<path transform="translate(1159,737)" d="m0 0 3 1-3 1-2 4h-2l-1 3-7-1 4-3z" fill="#33434C"/>
<path transform="translate(1212,678)" d="m0 0 5 1 13 8 1 2-2 2-1-3-9-4-2-2-4-1z" fill="#36444F"/>
<path transform="translate(1160,249)" d="m0 0 5 1 3 3v10l-2 1-2-10-5-4z" fill="#2A363F"/>
<path transform="translate(646,148)" d="m0 0h2l4 12-1 3-3-1-2-10z" fill="#34414C"/>
<path transform="translate(748,77)" d="m0 0 4 1 2 3-1 5-2 2-1-2v-6l-8 1 3-3z" fill="#40555E"/>
<path transform="translate(1747,796)" d="m0 0 2 1-11 11-1 2 2 1-5 5 1-5v-3z" fill="#E5EEEE"/>
<path transform="translate(892,451)" d="m0 0h5l2 4-2 2-5-1-3-3z" fill="#445660"/>
<path transform="translate(518,287)" d="m0 0 3 2-4 8-1-3h-3v-3h2v-3z" fill="#28363E"/>
<path transform="translate(1370,743)" d="m0 0h12l10 4 1 2-17-4-6-1z" fill="#13B29B"/>
<path transform="translate(1259,550)" d="m0 0 17 1 1 3h-12l-6-2z" fill="#EAECED"/>
<path transform="translate(1164,254)" d="m0 0 2 2v13l-4 1-2-1 1-3h2z" fill="#EFD1D2"/>
<path transform="translate(658,168)" d="m0 0 2 1 2 14v9l-2-3z" fill="#3E4550"/>
<path transform="translate(1188,122)" d="m0 0h9l1 4 2 1v2l2 1-5-1-9-6z" fill="#35434E"/>
<path transform="translate(1096,567)" d="m0 0 5 2-1 3-8 4-2-1 3-1 1-3-2-2z" fill="#3E4E58"/>
<path transform="translate(1110,559)" d="m0 0 4 1-2 3-4 1-1 3-5-2 4-4z" fill="#2C3943"/>
<path transform="translate(915,500)" d="m0 0 4 1 9 5 1 3-4-1-9-5z" fill="#334049"/>
<path transform="translate(1051,488)" d="m0 0 4 1v3l-3 2-6-1v-3z" fill="#35444E"/>
<path transform="translate(1365,399)" d="m0 0 2 1 3 6v4l-5-1-4-4h4z" fill="#18A28F"/>
<path transform="translate(1285,318)" d="m0 0 4 8v4l-7 2 1-4z" fill="#187A6E"/>
<path transform="translate(1165,194)" d="m0 0 3 1v10h-3l-2-5v-5z" fill="#374550"/>
<path transform="translate(1299,183)" d="m0 0 5 1 4 2 1 3-4 1-5-3z" fill="#35434D"/>
<path transform="translate(1775,871)" d="m0 0m-1 1 1 4-5 3h-4l1-4z" fill="#E0F9F6"/>
<path transform="translate(1814,752)" d="m0 0m-3 1 3 1-11 6-8 4-2-1 10-6z" fill="#FDFDFD"/>
<path transform="translate(1834,744)" d="m0 0h5v3l-10 3h-6l2-2 9-2z" fill="#EEF7F7"/>
<path transform="translate(1207,594)" d="m0 0 4 2v5l-7 1 1-4z" fill="#3E4550"/>
<path transform="translate(936,437)" d="m0 0 5 1v3l-3 2-5-1-2-2z" fill="#374751"/>
<path transform="translate(1277,258)" d="m0 0 2 1zm-2 1 3 1-2 7h-2v2l-3-1h2v-3l-3-1 2-1 1-3z" fill="#3A4851"/>
<path transform="translate(1153,161)" d="m0 0 5 3v5h-4l-2-2v-5z" fill="#34414C"/>
<path transform="translate(1532,869)" d="m0 0 7 1-1 3-5 3h-2l-1-4z" fill="#26323C"/>
<path transform="translate(1200,791)" d="m0 0h7l-2 4-5 2h-3l1-4h2z" fill="#12A994"/>
<path transform="translate(1129,548)" d="m0 0 5 2v2l-4 2-6-1 1-3z" fill="#374650"/>
<path transform="translate(866,472)" d="m0 0 5 1 12 7v2l-4-1-6-3-7-5z" fill="#313E47"/>
<path transform="translate(902,458)" d="m0 0h8l-2 4-5 1-3-2v-2z" fill="#36454F"/>
<path transform="translate(720,120)" d="m0 0 2 3 4 4 12 2v1l-12 1-6-6z" fill="#445660"/>
<path transform="translate(1074,568)" d="m0 0 5 1v3l-5 2-4-3z" fill="#313F49"/>
<path transform="translate(1086,550)" d="m0 0 6 1-2 4-4 1-3-3z" fill="#3B4C56"/>
<path transform="translate(1118,543)" d="m0 0 6 1-1 3-3 2-4-1v-4z" fill="#32404A"/>
<path transform="translate(1024,539)" d="m0 0 5 1v3l-5 2-4-2v-2z" fill="#32404A"/>
<path transform="translate(1101,517)" d="m0 0 5 1v3l-6 2-3-2 1-3z" fill="#36454F"/>
<path transform="translate(1041,499)" d="m0 0h7l-2 4-1 1h-5l-2-3z" fill="#33424C"/>
<path transform="translate(1040,483)" d="m0 0h5l1 3-3 2-7-1 1-3z" fill="#32404A"/>
<path transform="translate(946,457)" d="m0 0 7 1-2 4-3 1-4-2v-3z" fill="#303D47"/>
<path transform="translate(954,433)" d="m0 0 6 1-2 4h-7v-3z" fill="#32404A"/>
<path transform="translate(429,338)" d="m0 0 3 1 1 7-3 5h-1z" fill="#34414C"/>
<path transform="translate(1291,178)" d="m0 0 5 1 5 4-3 2-4-1-3-4z" fill="#384651"/>
<path transform="translate(1799,857)" d="m0 0h4l-1 5-5 1-4-3z" fill="#D0F5F1"/>
<path transform="translate(1211,790)" d="m0 0 4 1-6 4-9 4v-3l6-3z" fill="#364952"/>
<path transform="translate(1268,729)" d="m0 0 3 1-8 5-6 3 1-4 7-4z" fill="#354550"/>
<path transform="translate(1041,573)" d="m0 0 5 1 9 5v2l-5-1-9-5z" fill="#333F48"/>
<path transform="translate(1085,562)" d="m0 0 6 1-1 3-6 2-2-4z" fill="#2E3B45"/>
<path transform="translate(1107,549)" d="m0 0 5 1 1 3-4 2-4-1-1-3z" fill="#313F49"/>
<path transform="translate(1090,512)" d="m0 0h6v3l-2 2h-6v-4z" fill="#34424C"/>
<path transform="translate(941,480)" d="m0 0h7v3l-2 2h-5l-1-4z" fill="#314049"/>
<path transform="translate(1e3 464)" d="m0 0h8l-1 3-3 2-5-1v-3z" fill="#32404A"/>
<path transform="translate(973,460)" d="m0 0h6l1 3-3 2-6-1v-3z" fill="#313F49"/>
<path transform="translate(983,450)" d="m0 0h5v4l-7 1-2-2z" fill="#2F3C46"/>
<path transform="translate(1317,442)" d="m0 0 5 1 3 2-1 3-3 1-1-2h-3l-1-4z" fill="#35424C"/>
<path transform="translate(1253,346)" d="m0 0 11 1v4h-4l-7-3z" fill="#178577"/>
<path transform="translate(1343,208)" d="m0 0 5 1 1 3h2v5h-2l-3-4h-2z" fill="#374550"/>
<path transform="translate(1142,130)" d="m0 0 5 4 8 6 6 2-4 1-5-3-7-4-3-1z" fill="#34414C"/>
<path transform="translate(1463,709)" d="m0 0 4 2v3l-10 3v-2l4-2z" fill="#1E6C65"/>
<path transform="translate(1095,556)" d="m0 0h6l1 3-3 2-6-1v-3z" fill="#34434D"/>
<path transform="translate(1065,551)" d="m0 0h6l-1 4-1 1h-5l-2-3z" fill="#394953"/>
<path transform="translate(1156,548)" d="m0 0 2 1-7 6-9 4-2-1 10-6h2v-2z" fill="#E0E3E5"/>
<path transform="translate(1077,531)" d="m0 0 4 1-1 4-6 1-1-4z" fill="#384751"/>
<path transform="translate(1087,525)" d="m0 0 6 1-1 3-2 1h-6l1-4z" fill="#3B4B55"/>
<path transform="translate(1057,520)" d="m0 0 4 1 1 3-6 2-3-2v-2z" fill="#303E48"/>
<path transform="translate(1078,519)" d="m0 0 4 1v3l-3 2-5-1 2-4z" fill="#2F414A"/>
<path transform="translate(990,508)" d="m0 0 7 1v2l-3 2h-5l-1-4z" fill="#303E48"/>
<path transform="translate(1082,506)" d="m0 0 5 1-2 4h-7v-3z" fill="#384751"/>
<path transform="translate(1006,504)" d="m0 0 5 1 1 3-2 1h-6v-4z" fill="#313F49"/>
<path transform="translate(1023,502)" d="m0 0h6v4l-5 1-3-2v-2z" fill="#313F49"/>
<path transform="translate(981,502)" d="m0 0 6 1-2 4h-6v-4z" fill="#2E3B45"/>
<path transform="translate(1059,494)" d="m0 0h5v4l-1 1h-6l-1-3z" fill="#33424C"/>
<path transform="translate(995,485)" d="m0 0 6 1v3l-7 1-2-1 1-3z" fill="#32404A"/>
<path transform="translate(1013,482)" d="m0 0 5 1v3l-7 1-2-1 1-3z" fill="#2D3B45"/>
<path transform="translate(1e3 477)" d="m0 0h6v3l-3 2-5-1v-3z" fill="#32404A"/>
<path transform="translate(975,474)" d="m0 0h6l1 2-3 3h-5v-4z" fill="#32404A"/>
<path transform="translate(1017,469)" d="m0 0 5 1v3l-2 1h-6l-1-3z" fill="#303E48"/>
<path transform="translate(954,449)" d="m0 0h6l-1 4-6 1-2-1 1-3z" fill="#313F49"/>
<path transform="translate(972,445)" d="m0 0h7v3l-4 2-4-1-1-3z" fill="#33414B"/>
<path transform="translate(964,439)" d="m0 0h5v3l-2 2h-6v-3z" fill="#32404A"/>
<path transform="translate(1397,323)" d="m0 0 5 1 5 3-1 3-8-3z" fill="#374550"/>
<path transform="translate(516,258)" d="m0 0 2 2v3l2 1h-2l-1 2v-4l-9 1-4 1 2-3 8-1z" fill="#33404B"/>
<path transform="translate(670,168)" d="m0 0 1 2 2 1v9l-4-2-1-5z" fill="#3A434E"/>
<path transform="translate(1824,900)" d="m0 0 5 2 8 7-1 4-3-1-1-5-8-5z" fill="#CDEEEB"/>
<path transform="translate(1662,561)" d="m0 0 2 2 1 8-1 3-3-1v-8z" fill="#13AF99"/>
<path transform="translate(1076,556)" d="m0 0 5 1-2 4-5 1-1-4z" fill="#34424C"/>
<path transform="translate(1042,551)" d="m0 0h7l-2 4-6 1v-4z" fill="#313F49"/>
<path transform="translate(1096,544)" d="m0 0h6v4l-6 1-2-3z" fill="#3C4C56"/>
<path transform="translate(1047,538)" d="m0 0 3 1v3l-6 2-3-1v-3z" fill="#354650"/>
<path transform="translate(1098,532)" d="m0 0h6l-1 4-1 1h-6l1-4z" fill="#34444E"/>
<path transform="translate(1066,526)" d="m0 0 5 1v3l-1 1h-6v-4z" fill="#303E48"/>
<path transform="translate(1067,514)" d="m0 0h5v4l-1 1h-5l-2-3z" fill="#34424C"/>
<path transform="translate(1034,507)" d="m0 0 5 1 1 3-2 1h-6v-4z" fill="#303E48"/>
<path transform="translate(1022,488)" d="m0 0h5v4l-6 1-2-1 1-3z" fill="#2E3C46"/>
<path transform="translate(958,476)" d="m0 0 6 1-2 4-7-1 1-3z" fill="#2F3D47"/>
<path transform="translate(1026,475)" d="m0 0h5v4l-7 1v-4z" fill="#33414B"/>
<path transform="translate(933,474)" d="m0 0h5l1 2-3 3h-5v-4z" fill="#313F49"/>
<path transform="translate(985,465)" d="m0 0 5 2-2 3h-7v-3z" fill="#2D3A44"/>
<path transform="translate(938,465)" d="m0 0h5l1 4-2 1h-6l1-4z" fill="#33414B"/>
<path transform="translate(913,463)" d="m0 0 6 1-2 4-7-1 1-3z" fill="#313E48"/>
<path transform="translate(997,458)" d="m0 0h5v3l-2 2h-5l-2-3z" fill="#32404A"/>
<path transform="translate(965,454)" d="m0 0 5 1-2 4-4 1-3-1v-3z" fill="#2F3D47"/>
<path transform="translate(936,452)" d="m0 0h7l-1 4-6 1-2-3z" fill="#33414B"/>
<path transform="translate(925,432)" d="m0 0h5v4l-1 1h-5l-2-3z" fill="#35444E"/>
<path transform="translate(1297,430)" d="m0 0 6 2 3 3h-2l-1 3-7-5z" fill="#38454F"/>
<path transform="translate(1362,389)" d="m0 0h3l1 7h2l1 5-4-2-3-7z" fill="#3B4953"/>
<path transform="translate(1114,325)" d="m0 0 5 1 5 4-6 2-3-2 1-4z" fill="#3D4852"/>
<path transform="translate(462,320)" d="m0 0 3 1 1 2-7 4-4-1z" fill="#2C3A41"/>
<path transform="translate(1286,293)" d="m0 0 3 3v11l-4-3z" fill="#187C70"/>
<path transform="translate(1156,267)" d="m0 0 4 1 6 4v3l-4-1-5-3z" fill="#26323C"/>
<path transform="translate(1249,236)" d="m0 0 3 1-1 13h-3v-13z" fill="#19776C"/>
<path transform="translate(661,192)" d="m0 0 12 3v2h-10z" fill="#3F4A55"/>
<path transform="translate(1271,167)" d="m0 0 6 1 3 2v3l-7-1-2-2z" fill="#35424C"/>
<path transform="translate(1225,751)" d="m0 0h2v3l-9 5-2 1 2-4 3-4z" fill="#445660"/>
<path transform="translate(1317,729)" d="m0 0 1 2-4 4-5 3h-3l2-4z" fill="#36444D"/>
<path transform="translate(1008,691)" d="m0 0 5 1 10 6 1 3-16-8z" fill="#394853"/>
<path transform="translate(1193,685)" d="m0 0 2 1v8l-1 4h-2l-1 3-1-2 2-6v-7z" fill="#3E4D57"/>
<path transform="translate(1566,675)" d="m0 0h6l-1 4-4 1-2-2-5-1v-1z" fill="#21DCBD"/>
<path transform="translate(1200,595)" d="m0 0h3v9l-3 1v-7l-4 3 2-4z" fill="#18AD97"/>
<path transform="translate(1075,545)" d="m0 0h7l-1 4-5 1-2-1z" fill="#384852"/>
<path transform="translate(1106,538)" d="m0 0h8l-2 4-5 1z" fill="#394852"/>
<path transform="translate(1e3 513)" d="m0 0 5 1v3l-2 1h-6v-3z" fill="#36454F"/>
<path transform="translate(1068,500)" d="m0 0h7l-2 4-5 1-2-1z" fill="#35444E"/>
<path transform="translate(970,497)" d="m0 0h7l-1 4-5 1-3-3z" fill="#303E48"/>
<path transform="translate(1015,496)" d="m0 0 5 1v3l-2 1h-6l1-4z" fill="#32404A"/>
<path transform="translate(986,493)" d="m0 0 7 1-3 4h-5v-4z" fill="#313F49"/>
<path transform="translate(953,485)" d="m0 0 5 2-4 4-5-2v-2z" fill="#2D3A44"/>
<path transform="translate(967,482)" d="m0 0h5l2 3-7 2-3-3z" fill="#2F3D47"/>
<path transform="translate(987,479)" d="m0 0 5 2-4 4-5-2 1-3z" fill="#2E3C46"/>
<path transform="translate(994,471)" d="m0 0 5 1-1 3-7 1-1-3z" fill="#2F3C46"/>
<path transform="translate(947,471)" d="m0 0h7l-2 4-5 1-2-3z" fill="#303D47"/>
<path transform="translate(922,469)" d="m0 0h6v4l-5 1-3-1z" fill="#313F49"/>
<path transform="translate(967,468)" d="m0 0 5 1-2 4h-6l-1-3z" fill="#2E3C46"/>
<path transform="translate(955,463)" d="m0 0h6v4l-5 1-2-1z" fill="#2E3C46"/>
<path transform="translate(1335,456)" d="m0 0 8 2 4 5h-3l2 4-5-2v-5l-6-3z" fill="#404A55"/>
<path transform="translate(919,454)" d="m0 0h5v4l-6 1-2-3z" fill="#32404A"/>
<path transform="translate(927,446)" d="m0 0h5v4l-1 1h-5l-2-3z" fill="#313F49"/>
<path transform="translate(945,443)" d="m0 0 5 1v3l-7 1v-4z" fill="#303D48"/>
<path transform="translate(1256,262)" d="m0 0 2 1v6h-2l-1 2-3-2v-4z" fill="#3E4550"/>
<path transform="translate(1246,262)" d="m0 0 5 1-2 6h-4l-2 1 1-6z" fill="#2F6868"/>
<path transform="translate(913,768)" d="m0 0 4 2 7 6v2l-5-2v-2l-3-1v-2l-4-1z" fill="#2E3941"/>
<path transform="translate(1503,672)" d="m0 0 2 1-1 4-11 2h-5l4-3h11z" fill="#CFFBF8"/>
<path transform="translate(1088,538)" d="m0 0 5 1-2 4h-6l1-4z" fill="#364851"/>
<path transform="translate(930,509)" d="m0 0 5 1 8 5v2l-5-2-8-4z" fill="#35434D"/>
<path transform="translate(1015,510)" d="m0 0h6v3l-3 2-5-1z" fill="#303E48"/>
<path transform="translate(979,487)" d="m0 0 4 1-2 4h-7l2-4z" fill="#303D47"/>
<path transform="translate(930,459)" d="m0 0 5 2v2l-2 1h-7v-3z" fill="#2B3842"/>
<path transform="translate(1286,457)" d="m0 0h3l2 7h-4l-2-2z" fill="#197168"/>
<path transform="translate(1277,418)" d="m0 0 3 1 1 7-5-1-1-5z" fill="#35424D"/>
<path transform="translate(970,353)" d="m0 0h7l8 2-3 2-8-1z" fill="#158E7D"/>
<path transform="translate(1288,283)" d="m0 0h3v2h2l-2 11h-1l-1-7-2-3z" fill="#3C4751"/>
<path transform="translate(533,283)" d="m0 0 1 4-5 5-1-4-2-1z" fill="#3D5B62"/>
<path transform="translate(1143,268)" d="m0 0 15 7-3 2-5-2-7-5z" fill="#2D3940"/>
<path transform="translate(1038,1145)" d="m0 0 5 3v3l-4-1-1 9h-1v-11z" fill="#5C6069"/>
<path transform="translate(1340,755)" d="m0 0 3 4h3l1 6-4-2-4-4z" fill="#1DC5AC"/>
<path transform="translate(1815,750)" d="m0 0h7l-1 2-4 2-2 2-9 3 3-3 6-4z" fill="#E9F6F6"/>
<path transform="translate(604,708)" d="m0 0 4 1v2l4 1 5 5 3 4-4-2-12-10z" fill="#1AC0A7"/>
<path transform="translate(1487,714)" d="m0 0 2 1-5 5-4 1-2-1v-2z" fill="#E0DDDE"/>
<path transform="translate(1112,676)" d="m0 0h2l-2 5-3 7h-2l1-7z" fill="#43555F"/>
<path transform="translate(1176,663)" d="m0 0 2 2 3-1 3 2-3 1 2 4-4-2-5-3z" fill="#334049"/>
<path transform="translate(997,498)" d="m0 0 6 2-2 3h-6v-4z" fill="#2C3842"/>
<path transform="translate(1031,494)" d="m0 0h7l-2 4h-7v-3z" fill="#303E48"/>
<path transform="translate(904,493)" d="m0 0 5 2 7 4-1 2h-3v-2l-6-2-3-3z" fill="#374550"/>
<path transform="translate(1e3 491)" d="m0 0h6l-1 4-4 1-3-1z" fill="#313F49"/>
<path transform="translate(962,491)" d="m0 0 5 1v3l-6 1-2-1 1-3z" fill="#32404A"/>
<path transform="translate(508,321)" d="m0 0 1 4-2 4-1-1-3 7-1-3 4-10z" fill="#295A5B"/>
<path transform="translate(1253,287)" d="m0 0 3 1v3l1 4-3 2-1-3-2-2 1-2h-2v-2z" fill="#3A5A61"/>
<path transform="translate(1251,282)" d="m0 0 1 2 4 1 6 3-2 2-4-2h-5l-1-3z" fill="#168778"/>
<path transform="translate(1218,264)" d="m0 0 5 1v2l5 1 3 4-6-2-6-3z" fill="#178275"/>
<path transform="translate(1192,1149)" d="m0 0 3 1-5 4-5 3-2-2 5-4z" fill="#445660"/>
<path transform="translate(1330,524)" d="m0 0 1 3-4 4-7 1 3-3z" fill="#EAECED"/>
<path transform="translate(1053,439)" d="m0 0 14 8-4 1-10-6z" fill="#19B59E"/>
<path transform="translate(1213,290)" d="m0 0h3v2h2v7l-1-4h-6z" fill="#197268"/>
<path transform="translate(1213,281)" d="m0 0 3 1v7l-4-2-1-4z" fill="#168476"/>
<path transform="translate(1235,213)" d="m0 0 4 1 4 4-4 1-4-1z" fill="#187B6E"/>
<path transform="translate(1314,173)" d="m0 0 4 1 5 3v2l2 1-6-1-4-2z" fill="#3E4853"/>
<path transform="translate(1151,134)" d="m0 0 5 2 9 4 1 4-4-2-10-6z" fill="#222D37"/>
<path transform="translate(953 1e3)" d="m0 0h1v6l-5 2h-5l2-2 3-2z" fill="#324B50"/>
<path transform="translate(1242,772)" d="m0 0h6l-4 3-5 3-4-2z" fill="#374C54"/>
<path transform="translate(1073,545)" d="m0 0 2 1-3 9h-3l2-4h-6v-1h6z" fill="#DBEFEE"/>
<path transform="translate(1033,545)" d="m0 0 5 1-2 4h-5v-3z" fill="#31404A"/>
<path transform="translate(917,478)" d="m0 0h4l-1 5-2 1-4-2 1-3z" fill="#384F58"/>
<path transform="translate(1212,243)" d="m0 0h4l-1 5-4 2-1-2z" fill="#177E71"/>
<path transform="translate(836,148)" d="m0 0 4 1-9 6-4 3 2-5z" fill="#258D7F"/>
<path transform="translate(718,146)" d="m0 0 2 2-1 5-6 1v-3z" fill="#3E4550"/>
<path transform="translate(697,141)" d="m0 0 2 1-3 5-4 2-2-3z" fill="#366568"/>
<path transform="translate(1216,137)" d="m0 0 10 2v2l-4 2-6-4z" fill="#34414B"/>
<path transform="translate(1756,787)" d="m0 0 4 1-1 4-5 2-2 1 2-4z" fill="#E0EBEB"/>
<path transform="translate(1700,778)" d="m0 0h4l-2 4-4 1-1-2v3l-2-1-1-2z" fill="#36434E"/>
<path transform="translate(1277,550)" d="m0 0h8v2l-4 1h-11v-1z" fill="#DEE1E3"/>
<path transform="translate(923,448)" d="m0 0 3 2-1 5h-8z" fill="#DCEFEF"/>
<path transform="translate(1280,298)" d="m0 0h6v6h-3l-3-3z" fill="#425660"/>
<path transform="translate(1235,250)" d="m0 0 3 1 2 9h2l-1 3-3-2-2-6z" fill="#187E72"/>
<path transform="translate(1285,247)" d="m0 0h4v2h-3l-1 6h-5v-2h2v-2h2z" fill="#2F3B44"/>
<path transform="translate(1258,133)" d="m0 0 6 2 6 4v2l-6-2-5-3-2-2z" fill="#36424D"/>
<path transform="translate(326,102)" d="m0 0h2l-2 16h-1l-1-6 1-9z" fill="#414D58"/>
<path transform="translate(1e3 490)" d="m0 0 2 1-2 2 1 5-2 2-3-1 1-6z" fill="#D9F3F2"/>
<path transform="translate(1229,469)" d="m0 0 3 1-11 7-3-1z" fill="#34424B"/>
<path transform="translate(1344,350)" d="m0 0 3 3 4 9-1 3-2-3-4-8z" fill="#334E56"/>
<path transform="translate(473,349)" d="m0 0 7 4 4 4v2l-4-1-7-7z" fill="#13A18D"/>
<path transform="translate(1143,341)" d="m0 0 5 2 4 3h-3v2h-3z" fill="#3E4D58"/>
<path transform="translate(1263,289)" d="m0 0 10 5 1 3-6-2-6-4z" fill="#178476"/>
<path transform="translate(1306,272)" d="m0 0 4 4 1 4-3-1v6h-1z" fill="#15B09A"/>
<path transform="translate(486,269)" d="m0 0h4l-2 6-6-2z" fill="#3E4752"/>
<path transform="translate(1232,144)" d="m0 0 5 1 3 3h-2l-1 2-6-4z" fill="#394852"/>
<path transform="translate(1170,109)" d="m0 0 8 2-5 4-4-2z" fill="#374550"/>
<path transform="translate(1199,1140)" d="m0 0 1 3-5 2 2-4zm-5 5m-2 1 2 1-3 4-2-1v-2z" fill="#29353F"/>
<path transform="translate(1162,780)" d="m0 0 6 2 7 4-1 3v-2h-4v-2l-5-1v-2h-3z" fill="#3A4852"/>
<path transform="translate(1263,760)" d="m0 0 2 1v2l-7 4-3-1 3-3z" fill="#384953"/>
<path transform="translate(1224,754)" d="m0 0h3v2l-10 6h-2v-2z" fill="#354952"/>
<path transform="translate(1209,602)" d="m0 0h4v7l-2 1 1-5-4 2h-3v-2l3-1z" fill="#13A18D"/>
<path transform="translate(1037,432)" d="m0 0 4 1 3 3 5 3-2 2-10-7z" fill="#36444E"/>
<path transform="translate(524,326)" d="m0 0 2 3-4 10-1-4z" fill="#445660"/>
<path transform="translate(1273,247)" d="m0 0 2 4 2 3v5h-3l-2-11z" fill="#1A786D"/>
<path transform="translate(367,156)" d="m0 0 2 1-6 5-2 2-4-1v-2z" fill="#374F57"/>
<path transform="translate(1197,123)" d="m0 0 5 2 4 3-4 2-2-1v-2l-3-1z" fill="#40515B"/>
<path transform="translate(1133,97)" d="m0 0h1l1 5 1-2 2 1-1 5h-2v2l-2-1z" fill="#3E4550"/>
</svg>
